<?xml version="1.0" encoding="utf-8"?>
<!-- Generator: Adobe Illustrator 16.0.0, SVG Export Plug-In . SVG Version: 6.00 Build 0)  -->
 
<svg version="1.1" xmlns="http://www.w3.org/2000/svg" xmlns:xlink="http://www.w3.org/1999/xlink" x="0px" y="0px" width="1000px"
	 height="50px" viewBox="0 0 1000 50" enable-background="new 0 0 1000 50" xml:space="preserve" preserveAspectRatio="none">
<g id="Layer_1" display="none">
	<g id="Layer_1_2_">
		<g id="Layer_1_1_" display="inline">
			<rect opacity="0.15" fill="#3FA9F5"   width="300" height="50"/>
			<rect x="340" opacity="0.15" fill="#3FA9F5"   width="320" height="50"/>
			<rect x="700" opacity="0.15" fill="#3FA9F5"   width="300" height="50"/>
		</g>
		<g id="Layer_2" display="inline">
			<rect x="450" opacity="0.15" fill="#3FA9F5"   width="48" height="50"/>
			<rect x="502" opacity="0.15" fill="#3FA9F5"   width="48" height="50"/>
		</g>
		<g id="Layer_3" display="inline">
			<rect x="533" opacity="0.15" fill="#3FA9F5"   width="4" height="50"/>
			<rect x="463" opacity="0.15" fill="#3FA9F5"   width="4" height="50"/>
			<rect x="516" opacity="0.08" fill="#3FA9F5"   width="4" height="50"/>
			<rect x="480" opacity="0.08" fill="#3FA9F5"   width="4" height="50"/>
		</g>
	</g>
	<rect y="-9" display="inline" opacity="0.15" fill="#009FF7"   width="310" height="64"/>
	<rect x="345" y="-9" display="inline" opacity="0.15" fill="#009FF7"   width="310" height="64"/>
	<rect x="690" y="-9" display="inline" opacity="0.15" fill="#009FF7"   width="310" height="64"/>
	<g id="sith">
		<rect display="inline" opacity="0.15" fill="#F440F4"   width="137.5" height="50"/>
		<rect x="172.5" display="inline" opacity="0.15" fill="#F440F4"   width="137.5" height="50"/>
		<rect x="690" display="inline" opacity="0.15" fill="#F440F4"   width="137.5" height="50"/>
		<rect x="862.5" display="inline" opacity="0.15" fill="#F440F4"   width="137.5" height="50"/>
		<rect x="517.5" display="inline" opacity="0.15" fill="#F440F4"   width="137.5" height="50"/>
		<rect x="345" display="inline" opacity="0.15" fill="#F440F4"   width="137.5" height="50"/>
	</g>
</g>
<g id="Layer_2_1_">
	<rect y="-8" opacity="0.15" fill="#009FF7"   width="54" height="64"/>
	<rect x="86" y="-8" opacity="0.15" fill="#009FF7"   width="54" height="64"/>
	<rect x="172" y="-8" opacity="0.15" fill="#009FF7"   width="54" height="64"/>
	<rect x="258" y="-8" opacity="0.15" fill="#009FF7"   width="54" height="64"/>
	<rect x="344" y="-8" opacity="0.15" fill="#009FF7"   width="54" height="64"/>
	<rect x="430" y="-8" opacity="0.15" fill="#009FF7"   width="54" height="64"/>
	<rect x="516" y="-8" opacity="0.15" fill="#009FF7"   width="54" height="64"/>
	<rect x="602" y="-8" opacity="0.15" fill="#009FF7"   width="54" height="64"/>
	<rect x="688" y="-8" opacity="0.15" fill="#009FF7"   width="54" height="64"/>
	<rect x="774" y="-8" opacity="0.15" fill="#009FF7"   width="54" height="64"/>
	<rect x="860" y="-8" opacity="0.15" fill="#009FF7"   width="54" height="64"/>
	<rect x="946" y="-8" opacity="0.15" fill="#009FF7"   width="54" height="64"/>
	<rect x="-4.5" y="-181.5" fill="#009FF7" width="4.5" height="0"/>
</g>
<g id="Layer_4" display="none">
	<rect x="688" y="-8" display="inline" opacity="0.15" fill="#009FF7"   width="312" height="64"/>
	<rect x="344" y="-7" display="inline" opacity="0.15" fill="#009FF7"   width="312" height="64"/>
	<rect y="-8" display="inline" opacity="0.15" fill="#009FF7"   width="312" height="64"/>
</g>
<g id="Layer_3_1_" display="none">
	<rect x="774" y="-8" display="inline" opacity="0.15" fill="#009FF7"   width="226" height="64"/>
	<rect x="516" y="-8" display="inline" opacity="0.15" fill="#009FF7"   width="226" height="64"/>
	<rect x="258" y="-7" display="inline" opacity="0.15" fill="#009FF7"   width="226" height="64"/>
	<rect y="-7" display="inline" opacity="0.15" fill="#009FF7"   width="226" height="64"/>
</g>
</svg>
