<?xml version="1.0" encoding="utf-8"?>
<!-- Generator: Adobe Illustrator 15.1.0, SVG Export Plug-In . SVG Version: 6.00 Build 0)  -->
 
<svg version="1.1" id="Layer_1" xmlns="http://www.w3.org/2000/svg" xmlns:xlink="http://www.w3.org/1999/xlink" x="0px" y="0px"
	 width="35px" height="35px" viewBox="0 0 35 35"   xml:space="preserve">
<g>
	<g>
		<defs>
			<rect id="SVGID_1_" x="0.521" y="0.521" width="33.959" height="33.959"/>
		</defs>
		<clipPath id="SVGID_2_">
			<use xlink:href="#SVGID_1_"  overflow="visible"/>
		</clipPath>
		<path clip-path="url(#SVGID_2_)" fill="#F68B1F" d="M17.528,0.521c9.395,0,17.009,7.614,17.009,17.008
			c0,9.393-7.614,17.008-17.009,17.008c-9.393,0-17.008-7.615-17.008-17.008C0.521,8.135,8.136,0.521,17.528,0.521"/>
	</g>
	<path fill="none" stroke="#FAAB60" stroke-width="3.5" d="M28.973,20.901c0,2.071-3.022,3.75-6.75,3.75
		c-3.727,0-6.75-1.679-6.75-3.75v-3.833c0-2.07,3.023-3.75,6.75-3.75c3.728,0,6.75,1.68,6.75,3.75V20.901z"/>
	<path fill="none" stroke="#FAAB60" stroke-width="3.5" d="M8.195,22.255c1.283,1.626,4.695,1.071,7.621-1.238
		s4.259-5.5,2.977-7.125l-2.375-3.01c-1.284-1.625-4.697-1.07-7.622,1.238c-2.926,2.31-4.258,5.5-2.976,7.126L8.195,22.255z"/>
	<path fill="#BC91C2" d="M28.973,20.901c0,2.071-3.022,3.75-6.75,3.75c-3.727,0-6.75-1.679-6.75-3.75v-3.833
		c0-2.07,3.023-3.75,6.75-3.75c3.728,0,6.75,1.68,6.75,3.75V20.901"/>
	<path fill="none" stroke="#AC5BA3" stroke-width="0.75" stroke-linecap="round" stroke-linejoin="round" d="M28.973,20.901
		c0,2.071-3.022,3.75-6.75,3.75c-3.727,0-6.75-1.679-6.75-3.75v-3.833c0-2.07,3.023-3.75,6.75-3.75c3.728,0,6.75,1.68,6.75,3.75
		V20.901z"/>
	<path fill="none" stroke="#AC5BA3" stroke-width="0.75" stroke-linecap="round" stroke-linejoin="round" d="M28.973,17.068
		c0,2.071-3.022,3.75-6.75,3.75c-3.727,0-6.75-1.679-6.75-3.75"/>
	
		<line fill="none" stroke="#AC5BA3" stroke-width="0.75" stroke-linecap="round" stroke-linejoin="round" x1="28.441" y1="16.798" x2="16.006" y2="17.888"/>
	<path fill="#BC91C2" d="M8.195,22.254c1.283,1.626,4.695,1.071,7.621-1.238s4.259-5.5,2.977-7.125l-2.375-3.01
		c-1.284-1.625-4.697-1.07-7.622,1.238c-2.926,2.31-4.258,5.5-2.976,7.126L8.195,22.254"/>
	<path fill="none" stroke="#AC5BA3" stroke-width="0.75" stroke-linecap="round" stroke-linejoin="round" d="M8.195,22.254
		c1.283,1.626,4.695,1.071,7.621-1.238s4.259-5.5,2.977-7.125l-2.375-3.01c-1.284-1.625-4.697-1.07-7.622,1.238
		c-2.926,2.31-4.258,5.5-2.976,7.126L8.195,22.254z"/>
	<path fill="none" stroke="#AC5BA3" stroke-width="0.75" stroke-linecap="round" stroke-linejoin="round" d="M5.82,19.245
		c1.283,1.626,4.695,1.07,7.621-1.238c2.926-2.31,4.259-5.499,2.977-7.126"/>
	<polyline fill="none" stroke="#AC5BA3" stroke-width="0.75" stroke-linecap="round" stroke-linejoin="round" points="
		13.279,10.284 8.841,20.102 9.011,20.317 	"/>
</g>
</svg>
