<?xml version="1.0" encoding="utf-8"?>
<!-- Generator: Adobe Illustrator 15.1.0, SVG Export Plug-In . SVG Version: 6.00 Build 0)  -->
 
<svg version="1.1" id="Layer_1" xmlns="http://www.w3.org/2000/svg" xmlns:xlink="http://www.w3.org/1999/xlink" x="0px" y="0px"
	 width="35px" height="35px" viewBox="0 0 35 35"   xml:space="preserve">
<path fill="#A08DC2" d="M12.633,14.917l-1.869-1.716l7.727-8.067l2.396,1.055l-5.084,5.061c-0.09-0.011-0.184-0.017-0.277-0.017
	c-1.066,0-1.932,0.729-1.932,1.63c0,0.172,0.033,0.339,0.092,0.495L12.633,14.917"/>
<polygon fill="none" stroke="#A08DC2" stroke-width="0.844" stroke-miterlimit="3.864" points="21.75,4.641 20.438,6.031 
	18.981,5.215 20.213,3.838 "/>
<polyline fill="#FFFFFF" points="9.414,15.131 8.895,13.415 12.021,12.191 11.803,14.381 9.414,15.131 "/>
<polygon fill="none" stroke="#A08DC2" stroke-width="0.844" stroke-miterlimit="3.864" points="9.414,15.131 8.895,13.415 
	12.021,12.191 11.803,14.381 "/>
<polyline fill="#FFFFFF" points="13.799,15.417 11.561,17.584 9.725,16.954 11.594,14.596 13.799,15.417 "/>
<polygon fill="none" stroke="#A08DC2" stroke-width="0.844" stroke-miterlimit="3.864" points="13.799,15.417 11.561,17.584 
	9.725,16.954 11.594,14.596 "/>
<rect x="13.775" y="15.76" fill="#FFFFFF" width="2.486" height="4.324"/>
<rect x="13.775" y="15.76" fill="none" stroke="#A08DC2" stroke-width="0.844" stroke-miterlimit="3.864" width="2.486" height="4.324"/>
<polyline fill="#A08DC2" points="9.197,22.413 18.861,22.424 18.861,23.068 9.197,23.031 9.197,22.413 "/>
<g>
	<path fill="#A08DC2" d="M15.525,11.233l-0.105,0.002c0.514-0.589,0.973-1.108,1.219-1.368c0.775-0.824,1.631-0.669,1.631-0.669
		h5.596c2.098,0,1.865,1.853,1.865,1.853v11.172c0,1.545-1.865,1.236-1.865,1.236H21.98v4.324h3.127
		c1.943,0,1.479,1.029,1.479,1.029v0.929H7.004c0,0,0.076-0.155,0-1.235c-0.078-1.082,1.709-0.773,1.709-0.773h9.867v-5.561
		c0-1.854,2.1-1.338,2.1-1.338h1.941v-7.568c0-1.442-1.477-0.721-1.477-0.721l-4.672,3.659l-4.049-1.502"/>
	<path fill="#A08DC2" d="M12.424,14.702l1.23-1.431c0.217,0.703,0.973,1.221,1.871,1.221"/>
</g>
<circle fill="#FFFFFF" cx="15.34" cy="12.82" r="1.781"/>
</svg>
