<?xml version="1.0" encoding="utf-8"?>
<!-- Generator: Adobe Illustrator 15.1.0, SVG Export Plug-In . SVG Version: 6.00 Build 0)  -->
 
<svg version="1.1" id="Layer_1" xmlns="http://www.w3.org/2000/svg" xmlns:xlink="http://www.w3.org/1999/xlink" x="0px" y="0px"
	 width="35px" height="35px" viewBox="0 0 35 35"   xml:space="preserve">
<g>
	<g>
		<defs>
			<rect id="SVGID_1_" x="0.492" y="0.493" width="33.959" height="33.958"/>
		</defs>
		<clipPath id="SVGID_2_">
			<use xlink:href="#SVGID_1_"  overflow="visible"/>
		</clipPath>
		<path clip-path="url(#SVGID_2_)" fill="#00ADDC" d="M17.5,0.493c9.393,0,17.008,7.614,17.008,17.008
			c0,9.392-7.615,17.007-17.008,17.007c-9.393,0-17.008-7.615-17.008-17.007C0.492,8.107,8.107,0.493,17.5,0.493"/>
	</g>
	<path fill="none" stroke="#00BCE3" stroke-width="3.5" d="M22.967,10.337c-0.312-0.108-1.197-0.552-1-1.68
		c0.092-0.518-0.188-1.103-0.445-1.287c-0.258-0.182-0.15-1.095,0.578-1.088c0.715,0.009,0.697,0.579,1.01,1.078
		c0.311,0.499,0.783,0.305,1.26,0.921c0.254,0.33,0.488,0.679,0.201,1.281"/>
	<path fill="none" stroke="#00BCE3" stroke-width="3.5" d="M12.035,9.682c-0.868,0.051-0.732-1.036-1.069-1.33
		C10.563,8,9.906,7.207,10.291,6.908c0.385-0.298,1.148,0.098,1.744,0.603c0.518,0.442,1.394,0.539,1.114,1.284"/>
	<path fill="none" stroke="#00BCE3" stroke-width="3.5" d="M8.511,13.379c-0.927,0.23-1.005-0.885-1.388-1.135
		c-0.461-0.299-1.25-1.008-0.905-1.354c0.342-0.349,1.177-0.051,1.856,0.378c0.592,0.373,1.44,0.344,1.356,1.03"/>
	<path fill="none" stroke="#00BCE3" stroke-width="3.5" d="M7.52,17.871c-0.819,0.25-0.88-0.827-1.251-1.03
		c-0.443-0.242-1.212-0.855-0.896-1.232c0.315-0.378,1.115-0.175,1.771,0.172c0.569,0.303,1.424,0.195,1.287,0.977"/>
	<path fill="none" stroke="#00BCE3" stroke-width="3.5" d="M8.862,22.264c-0.692,0.252-0.794-0.672-1.122-0.828
		c-0.392-0.189-1.076-0.682-0.824-1.02c0.254-0.338,0.949-0.201,1.527,0.068c0.505,0.234,1.232,0.102,1.15,0.781"/>
	<path fill="none" stroke="#00BCE3" stroke-width="3.5" d="M25.734,15.74c-0.82-0.249-1.158-1.1-1.109-1.952
		c0.049-0.852-0.531-1.597-1.031-2.063c-0.502-0.466-0.846-0.972-0.496-1.57c0.252-0.432,0.695-0.808,1.195-0.706
		c0.604,0.125,0.951,0.74,1.205,1.466c0.314,0.888,1.457,1.699,1.99,1.966c0.531,0.267,0.887,0.936,0.646,1.431"/>
	<path fill="none" stroke="#00BCE3" stroke-width="3.5" d="M13.733,11.94c-0.856,0.114-0.719-1.175-1.099-1.5
		c-0.378-0.324-0.883-0.554-0.377-1.267c0.393-0.553,1.007-0.56,1.613,0.149c0.607,0.707,1.574,0.672,1.414,1.056"/>
	<path fill="none" stroke="#00BCE3" stroke-width="3.5" d="M10.529,15.368c-0.725,0.137-0.882-1.086-1.313-1.362
		c-0.437-0.275-0.981-0.439-0.581-1.216c0.312-0.603,0.935-0.688,1.658-0.059c0.723,0.629,1.527,0.265,1.593,0.875"/>
	<path fill="none" stroke="#00BCE3" stroke-width="3.5" d="M9.535,19.648c-0.799,0.309-0.891-0.963-1.311-1.189
		c-0.417-0.223-0.938-0.326-0.579-1.128c0.277-0.624,0.865-0.774,1.565-0.234c0.703,0.537,1.621,0.278,1.535,0.687"/>
	<path fill="none" stroke="#00BCE3" stroke-width="3.5" d="M10.672,23.699C10,24,9.862,22.912,9.494,22.738
		c-0.371-0.174-0.821-0.238-0.549-0.945c0.209-0.549,0.707-0.705,1.334-0.271c0.628,0.43,1.405,0.168,1.348,0.521"/>
	<g>
		<defs>
			<path id="SVGID_3_" d="M17.5,0.493c9.393,0,17.008,7.614,17.008,17.008c0,9.392-7.615,17.007-17.008,17.007
				c-9.392,0-17.008-7.615-17.008-17.007C0.492,8.107,8.108,0.493,17.5,0.493"/>
		</defs>
		<clipPath id="SVGID_4_">
			<use xlink:href="#SVGID_3_"  overflow="visible"/>
		</clipPath>
		<g clip-path="url(#SVGID_4_)">
			<defs>
				<rect id="SVGID_5_" x="0.492" y="0.493" width="33.959" height="33.958"/>
			</defs>
			<clipPath id="SVGID_6_">
				<use xlink:href="#SVGID_5_"  overflow="visible"/>
			</clipPath>
			<path clip-path="url(#SVGID_6_)" fill="none" stroke="#00BCE3" stroke-width="3.5" d="M25.533,31.834
				c-0.678-1.398,0.299-2.961,0.998-4.135c0.559-0.934,1.199-1.971,2.008-2.693c0.652-0.584,1.111-1.365,1.906-1.781
				c0.898-0.469,0.799-0.064,1.127,0.652c0.256,0.555,0.734,0.902,0.957,1.48c0.33,0.861,0.354,1.506,0.104,2.404
				c-0.305,1.094-0.693,2.594-1.555,3.391C29.752,32.383,26.752,34.346,25.533,31.834z"/>
			<path clip-path="url(#SVGID_6_)" fill="none" stroke="#00BCE3" stroke-width="3.5" d="M58.543,50.422
				c-5.627-0.275-17.516-9.803-20.148-11.561c-2.639-1.758-6.219-4.133-7.535-4.625c-1.318-0.488-2.902-0.834-2.742-2
				c0.174-1.283,0.676-1.85,1.576-2.18c0.783-0.289,0.713-0.188,1.33-0.193"/>
			<path clip-path="url(#SVGID_6_)" fill="none" stroke="#00BCE3" stroke-width="3.5" d="M31.908,23.725
				c-0.676,0.604-1.66,0.818-2.113,0.441c-0.639-0.529-1.342-1.393-1.213-2.283c0.15-1.031,1.531-1.973,2.473-1.318
				C31.723,21.027,32.67,23.049,31.908,23.725z"/>
		</g>
	</g>
	<path fill="none" stroke="#00BCE3" stroke-width="3.5" d="M28.91,25.646c-1.443,1.449-3.553-2.09-1.375-3.096
		c0.766-0.352,1.711-0.092,2.148,0.631C30.199,24.039,29.537,25.018,28.91,25.646z"/>
	<g>
		<defs>
			<path id="SVGID_7_" d="M17.5,0.493c9.393,0,17.008,7.614,17.008,17.008c0,9.392-7.615,17.007-17.008,17.007
				c-9.392,0-17.008-7.615-17.008-17.007C0.492,8.107,8.108,0.493,17.5,0.493"/>
		</defs>
		<clipPath id="SVGID_8_">
			<use xlink:href="#SVGID_7_"  overflow="visible"/>
		</clipPath>
		<g clip-path="url(#SVGID_8_)">
			<defs>
				<rect id="SVGID_9_" x="0.492" y="0.493" width="33.959" height="33.958"/>
			</defs>
			<clipPath id="SVGID_10_">
				<use xlink:href="#SVGID_9_"  overflow="visible"/>
			</clipPath>
			<path clip-path="url(#SVGID_10_)" fill="none" stroke="#00BCE3" stroke-width="3.5" d="M25.338,30.877
				c-2.16,0.094-2.072-3.875-0.41-4.18c0.627-0.113,1.59,0.287,2.064,0.709C28.211,28.49,26.771,30.814,25.338,30.877z"/>
			<path clip-path="url(#SVGID_10_)" fill="none" stroke="#00BCE3" stroke-width="3.5" d="M29.434,27.957
				c-0.334,0.65-1.557,1.336-2.051,1.098c-0.666-0.324-1.713-0.621-2.096-1.312c-0.424-0.758-0.102-2.311,0.625-2.807
				C27.926,23.566,30.557,25.77,29.434,27.957z"/>
			<path clip-path="url(#SVGID_10_)" fill="none" stroke="#00BCE3" stroke-width="3.5" d="M28.736,30.658
				c-0.359-0.154-1.053-0.586-1.354-1.604"/>
			<path clip-path="url(#SVGID_10_)" fill="none" stroke="#00BCE3" stroke-width="3.5" d="M31.193,28.764
				c-0.408,0.137-1.646-0.691-1.631-1.121"/>
		</g>
	</g>
	<path fill="none" stroke="#00BCE3" stroke-width="3.5" d="M19.617,17.168c-1.166,0.394-1.471-1.253-2.701-2.524
		c-1.535-1.589-3.902-2.16-3.008-3.188c0.636-0.729,0.78-1.333,1.549-1.009c0.768,0.323,1.704,1.819,2.808,2.767
		c0.867,0.747,2.951,2.095,2.869,2.757"/>
	<path fill="none" stroke="#00BCE3" stroke-width="3.5" d="M17.186,19.885c-1.033,0.354-1.606-1.164-2.99-2.231
		c-1.799-1.389-4.283-1.657-3.535-2.797c0.531-0.81,0.582-1.431,1.41-1.206c0.828,0.223,2.007,1.597,3.267,2.404
		c0.994,0.634,3.288,1.299,3.127,2.542"/>
	<path fill="none" stroke="#00BCE3" stroke-width="3.5" d="M16.063,23.305c-1.045,0.65-1.623-0.861-3.019-1.801
		c-1.742-1.17-4.103-1.166-3.427-2.363c0.48-0.852,0.511-1.466,1.302-1.333c0.791,0.132,1.946,1.353,3.163,2.009
		c0.959,0.514,3.182,1.324,3.219,1.98"/>
	<path fill="none" stroke="#00BCE3" stroke-width="3.5" d="M16.444,26.545c-0.871,0.605-1.434-0.668-2.674-1.41
		c-1.549-0.926-3.576-0.816-3.049-1.877c0.373-0.75,0.373-1.279,1.058-1.201c0.685,0.076,1.732,1.072,2.807,1.582
		c0.846,0.398,2.792,0.992,2.854,1.557"/>
	<path fill="none" stroke="#00BCE3" stroke-width="3.5" d="M27.924,23.283c-0.209,0.295-1.143,0.908-1.84-0.143
		c-0.697-1.049-1.518-2.072-2.387-2.578c-1.295-0.754-3.061-1.516-3.555-2.023c-0.707-0.723-0.703-1.274-0.301-1.766
		c0.402-0.49,1.002-0.891,1.527-0.746c1.021,0.281,1.562,1.552,2.074,2.081c0.512,0.531,2.023,1.604,3.205,2.051
		c0.848,0.324,1.707,0.59,2.049,1.176c0.273,0.475,0.365,0.893,0,1.25C28.336,22.938,28.135,22.988,27.924,23.283z"/>
	<path fill="none" stroke="#00BCE3" stroke-width="3.5" d="M24.332,27.873c0.244,0.666-0.266,1.381-0.367,1.645
		c-0.113,0.293-0.752,1.021-1.518,0.332c-0.768-0.689-1.613-1.461-2.414-1.662c-1.195-0.301-2.405-0.354-2.902-0.648
		c-0.712-0.42-0.815-0.871-0.585-1.373c0.234-0.5,0.64-0.973,1.095-0.982c0.88-0.02,1.564,0.891,2.08,1.199s2.271,0.842,3.314,0.922
		"/>
	<path fill="none" stroke="#00BCE3" stroke-width="3.5" d="M30.75,19.299c1.082,1.115-0.127,1.893-0.443,1.957
		c-2.664,0.551-1.006-2.266-3.143-3.781c-0.705-0.499-1.865-1.435-1.139-2.305c0.611-0.73,2.303-1.526,2.928-0.142
		C29.641,16.55,29.373,17.878,30.75,19.299z"/>
	<path fill="none" stroke="#00BCE3" stroke-width="3.5" d="M25.814,25.945c0.006,0.152-0.031,0.287-0.141,0.451
		c-0.283,0.424-0.467,0.52-0.617,0.854c-0.146,0.332-0.932,1.141-1.781,0.293c-0.85-0.846-1.809-1.643-2.727-1.926
		c-1.367-0.422-3.185-0.744-3.748-1.117c-0.8-0.529-0.893-1.062-0.592-1.627c0.299-0.566,0.8-1.092,1.327-1.076
		c1.024,0.031,1.762,1.127,2.34,1.52c0.584,0.389,2.107,1.055,3.311,1.209"/>
	<path fill="none" stroke="#00BCE3" stroke-width="3.5" d="M25.984,25.771c-0.199,0.303-1.121,0.939-1.885-0.104
		s-1.648-2.061-2.561-2.551c-1.357-0.73-3.195-1.465-3.725-1.965c-0.757-0.715-0.781-1.271-0.394-1.775
		c0.389-0.502,0.976-0.92,1.521-0.787c1.055,0.262,1.668,1.535,2.217,2.057c0.547,0.523,2.145,1.574,3.367,2
		c0.885,0.309,1.773,0.559,2.15,1.143c0.303,0.471,0.418,0.893,0.062,1.26C26.387,25.414,26.184,25.469,25.984,25.771z"/>
	<g>
		<defs>
			<path id="SVGID_11_" d="M17.5,0.493c9.393,0,17.008,7.614,17.008,17.008c0,9.392-7.615,17.007-17.008,17.007
				c-9.392,0-17.008-7.615-17.008-17.007C0.492,8.107,8.108,0.493,17.5,0.493"/>
		</defs>
		<clipPath id="SVGID_12_">
			<use xlink:href="#SVGID_11_"  overflow="visible"/>
		</clipPath>
		<g clip-path="url(#SVGID_12_)">
			<defs>
				<rect id="SVGID_13_" x="0.492" y="0.493" width="33.959" height="33.958"/>
			</defs>
			<clipPath id="SVGID_14_">
				<use xlink:href="#SVGID_13_"  overflow="visible"/>
			</clipPath>
			<path clip-path="url(#SVGID_14_)" fill="none" stroke="#00BCE3" stroke-width="3.5" d="M65.318,55.631
				c-0.684,0.18-2.576,0.502-3.035-1.82c-0.283-1.432-3.67-3.27-4.998-4.211c-1.771-1.256-7.721-6.475-9.209-7.975
				c-1.488-1.498-10.502-8.338-13.754-9.535c-1.156-0.426-3.328-1.25-3.344-2.48c-0.014-1.232,1.52-2.143,1.398-3.223
				c-0.117-1.084-1.238-2.238-0.482-2.367s2.508,0.918,3.162,1.717c0.656,0.795,2.35,3.258,3.969,4.256
				c2.393,1.475,12.125,9.49,17.434,15.141c2.078,2.209,5.867,5.49,7.033,5.877c1.17,0.385,2.367-0.207,2.834,1.012"/>
			<path clip-path="url(#SVGID_14_)" fill="none" stroke="#E5796C" stroke-width="3.5" d="M49.682,43.105
				c-2.646-1.336-5.293-2.705-6.416-3.451c-2.414-1.602-9.414-6.234-11.105-8.543"/>
		</g>
	</g>
	<path fill="#D7A4CB" d="M22.967,10.337c-0.312-0.108-1.197-0.552-1-1.68c0.092-0.518-0.188-1.103-0.445-1.287
		c-0.258-0.182-0.15-1.095,0.578-1.088c0.715,0.009,0.697,0.579,1.01,1.078c0.311,0.499,0.783,0.305,1.26,0.921
		c0.254,0.33,0.488,0.679,0.201,1.281"/>
	<path fill="none" stroke="#C76BAB" stroke-width="0.75" stroke-linecap="round" stroke-linejoin="round" d="M22.967,10.337
		c-0.312-0.108-1.197-0.552-1-1.68c0.092-0.518-0.188-1.103-0.445-1.287c-0.258-0.182-0.15-1.095,0.578-1.088
		c0.715,0.009,0.697,0.579,1.01,1.078c0.311,0.499,0.783,0.305,1.26,0.921c0.254,0.33,0.488,0.679,0.201,1.281"/>
	<path fill="#D7A4CB" d="M12.035,9.682c-0.868,0.051-0.732-1.036-1.069-1.33C10.563,8,9.906,7.207,10.291,6.908
		c0.385-0.298,1.148,0.098,1.744,0.603c0.518,0.442,1.394,0.539,1.114,1.284"/>
	<path fill="none" stroke="#C76BAB" stroke-width="0.75" stroke-linecap="round" stroke-linejoin="round" d="M12.035,9.682
		c-0.868,0.051-0.732-1.036-1.069-1.33C10.563,8,9.906,7.207,10.291,6.908c0.385-0.298,1.148,0.098,1.744,0.603
		c0.518,0.442,1.394,0.539,1.114,1.284"/>
	<path fill="#D7A4CB" d="M8.511,13.379c-0.927,0.23-1.005-0.885-1.388-1.135c-0.461-0.299-1.25-1.008-0.905-1.354
		c0.342-0.349,1.177-0.051,1.856,0.378c0.592,0.373,1.44,0.344,1.356,1.03"/>
	<path fill="none" stroke="#C76BAB" stroke-width="0.75" stroke-linecap="round" stroke-linejoin="round" d="M8.511,13.379
		c-0.927,0.23-1.005-0.885-1.388-1.135c-0.461-0.299-1.25-1.008-0.905-1.354c0.342-0.349,1.177-0.051,1.856,0.378
		c0.592,0.373,1.44,0.344,1.356,1.03"/>
	<path fill="#D7A4CB" d="M7.52,17.871c-0.819,0.25-0.88-0.827-1.251-1.03c-0.443-0.242-1.212-0.855-0.896-1.232
		c0.315-0.378,1.115-0.175,1.771,0.172c0.569,0.303,1.424,0.195,1.287,0.977"/>
	<path fill="none" stroke="#C76BAB" stroke-width="0.75" stroke-linecap="round" stroke-linejoin="round" d="M7.52,17.871
		c-0.819,0.25-0.88-0.827-1.251-1.03c-0.443-0.242-1.212-0.855-0.896-1.232c0.315-0.378,1.115-0.175,1.771,0.172
		c0.569,0.303,1.424,0.195,1.287,0.977"/>
	<path fill="#D7A4CB" d="M8.861,22.262c-0.692,0.252-0.794-0.67-1.122-0.828c-0.392-0.189-1.076-0.68-0.824-1.018
		c0.254-0.338,0.949-0.201,1.527,0.068c0.505,0.232,1.232,0.102,1.15,0.781"/>
	<path fill="none" stroke="#C76BAB" stroke-width="0.75" stroke-linecap="round" stroke-linejoin="round" d="M8.861,22.262
		c-0.692,0.252-0.794-0.67-1.122-0.828c-0.392-0.189-1.076-0.68-0.824-1.018c0.254-0.338,0.949-0.201,1.527,0.068
		c0.505,0.232,1.232,0.102,1.15,0.781"/>
	<path fill="#D7A4CB" d="M25.734,15.739c-0.822-0.249-1.16-1.1-1.111-1.952c0.049-0.852-0.531-1.597-1.031-2.063
		c-0.502-0.466-0.844-0.972-0.496-1.57c0.252-0.432,0.697-0.808,1.195-0.706c0.605,0.125,0.951,0.74,1.205,1.466
		c0.314,0.889,1.457,1.699,1.99,1.966c0.531,0.267,0.887,0.936,0.648,1.431"/>
	<path fill="none" stroke="#C76BAB" stroke-width="0.75" stroke-linecap="round" stroke-linejoin="round" d="M25.734,15.739
		c-0.822-0.249-1.16-1.1-1.111-1.952c0.049-0.852-0.531-1.597-1.031-2.063c-0.502-0.466-0.844-0.972-0.496-1.57
		c0.252-0.432,0.697-0.808,1.195-0.706c0.605,0.125,0.951,0.74,1.205,1.466c0.314,0.889,1.457,1.699,1.99,1.966
		c0.531,0.267,0.887,0.936,0.648,1.431"/>
	<path fill="#D7A4CB" d="M13.732,11.939c-0.856,0.114-0.719-1.175-1.099-1.5c-0.379-0.324-0.883-0.554-0.378-1.267
		c0.394-0.553,1.008-0.56,1.614,0.149c0.607,0.707,1.574,0.672,1.414,1.056"/>
	<path fill="none" stroke="#C76BAB" stroke-width="0.75" stroke-linecap="round" stroke-linejoin="round" d="M13.732,11.939
		c-0.856,0.114-0.719-1.175-1.099-1.5c-0.379-0.324-0.883-0.554-0.378-1.267c0.394-0.553,1.008-0.56,1.614,0.149
		c0.607,0.707,1.574,0.672,1.414,1.056"/>
	<path fill="#D7A4CB" d="M10.528,15.367c-0.725,0.137-0.882-1.086-1.314-1.362c-0.436-0.275-0.98-0.439-0.58-1.216
		c0.312-0.603,0.935-0.688,1.658-0.059c0.723,0.629,1.527,0.265,1.593,0.875"/>
	<path fill="none" stroke="#C76BAB" stroke-width="0.75" stroke-linecap="round" stroke-linejoin="round" d="M10.528,15.367
		c-0.725,0.137-0.882-1.086-1.314-1.362c-0.436-0.275-0.98-0.439-0.58-1.216c0.312-0.603,0.935-0.688,1.658-0.059
		c0.723,0.629,1.527,0.265,1.593,0.875"/>
	<path fill="#D7A4CB" d="M9.534,19.646c-0.799,0.311-0.891-0.963-1.311-1.189c-0.417-0.221-0.938-0.324-0.579-1.127
		c0.277-0.624,0.865-0.774,1.565-0.234c0.703,0.537,1.621,0.278,1.535,0.687"/>
	<path fill="none" stroke="#C76BAB" stroke-width="0.75" stroke-linecap="round" stroke-linejoin="round" d="M9.534,19.646
		c-0.799,0.311-0.891-0.963-1.311-1.189c-0.417-0.221-0.938-0.324-0.579-1.127c0.277-0.624,0.865-0.774,1.565-0.234
		c0.703,0.537,1.621,0.278,1.535,0.687"/>
	<path fill="#D7A4CB" d="M10.67,23.697c-0.672,0.301-0.81-0.787-1.178-0.961c-0.371-0.172-0.821-0.238-0.549-0.945
		c0.209-0.547,0.707-0.703,1.334-0.271c0.628,0.432,1.405,0.168,1.348,0.521"/>
	<path fill="none" stroke="#C76BAB" stroke-width="0.75" stroke-linecap="round" stroke-linejoin="round" d="M10.67,23.697
		c-0.672,0.301-0.81-0.787-1.178-0.961c-0.371-0.172-0.821-0.238-0.549-0.945c0.209-0.547,0.707-0.703,1.334-0.271
		c0.628,0.432,1.405,0.168,1.348,0.521"/>
	<g>
		<defs>
			<path id="SVGID_15_" d="M17.5,0.493c9.393,0,17.008,7.614,17.008,17.008c0,9.392-7.615,17.007-17.008,17.007
				c-9.392,0-17.008-7.615-17.008-17.007C0.492,8.107,8.108,0.493,17.5,0.493"/>
		</defs>
		<clipPath id="SVGID_16_">
			<use xlink:href="#SVGID_15_"  overflow="visible"/>
		</clipPath>
		<g clip-path="url(#SVGID_16_)">
			<defs>
				<rect id="SVGID_17_" x="0.492" y="0.493" width="33.959" height="33.958"/>
			</defs>
			<clipPath id="SVGID_18_">
				<use xlink:href="#SVGID_17_"  overflow="visible"/>
			</clipPath>
			<path clip-path="url(#SVGID_18_)" fill="#D7A4CB" d="M25.533,31.834c-0.678-1.398,0.299-2.961,0.998-4.135
				c0.559-0.934,1.199-1.971,2.008-2.693c0.652-0.584,1.111-1.365,1.906-1.781c0.898-0.469,0.799-0.064,1.127,0.652
				c0.256,0.555,0.734,0.902,0.957,1.48c0.33,0.861,0.354,1.506,0.104,2.404c-0.305,1.094-0.693,2.594-1.555,3.391
				C29.752,32.383,26.752,34.346,25.533,31.834"/>
			
				<path clip-path="url(#SVGID_18_)" fill="none" stroke="#C76BAB" stroke-width="0.75" stroke-linecap="round" stroke-linejoin="round" d="
				M25.533,31.834c-0.678-1.398,0.299-2.961,0.998-4.135c0.559-0.934,1.199-1.971,2.008-2.693c0.652-0.584,1.111-1.365,1.906-1.781
				c0.898-0.469,0.799-0.064,1.127,0.652c0.256,0.555,0.734,0.902,0.957,1.48c0.33,0.861,0.354,1.506,0.104,2.404
				c-0.305,1.094-0.693,2.594-1.555,3.391C29.752,32.383,26.752,34.346,25.533,31.834z"/>
			<path clip-path="url(#SVGID_18_)" fill="#D7A4CB" d="M58.543,50.422c-5.627-0.275-17.516-9.803-20.148-11.561
				c-2.639-1.758-6.219-4.133-7.535-4.625c-1.318-0.488-2.902-0.834-2.742-2c0.174-1.283,0.676-1.85,1.576-2.18
				c0.783-0.289,0.713-0.188,1.33-0.193"/>
			
				<path clip-path="url(#SVGID_18_)" fill="none" stroke="#C76BAB" stroke-width="0.75" stroke-linecap="round" stroke-linejoin="round" d="
				M58.543,50.422c-5.627-0.275-17.516-9.803-20.148-11.561c-2.639-1.758-6.219-4.133-7.535-4.625c-1.318-0.488-2.902-0.834-2.742-2
				c0.174-1.283,0.676-1.85,1.576-2.18c0.783-0.289,0.713-0.188,1.33-0.193"/>
		</g>
	</g>
	<path fill="#D7A4CB" d="M31.908,23.725c-0.676,0.602-1.66,0.816-2.113,0.439c-0.639-0.529-1.342-1.393-1.213-2.281
		c0.15-1.033,1.531-1.973,2.473-1.32C31.723,21.025,32.67,23.047,31.908,23.725"/>
	<path fill="none" stroke="#C76BAB" stroke-width="0.75" stroke-linecap="round" stroke-linejoin="round" d="M31.908,23.725
		c-0.676,0.602-1.66,0.816-2.113,0.439c-0.639-0.529-1.342-1.393-1.213-2.281c0.15-1.033,1.531-1.973,2.473-1.32
		C31.723,21.025,32.67,23.047,31.908,23.725z"/>
	<path fill="#D7A4CB" d="M28.91,25.646c-1.443,1.449-3.553-2.09-1.375-3.096c0.766-0.352,1.711-0.092,2.148,0.631
		C30.199,24.039,29.537,25.018,28.91,25.646"/>
	<path fill="none" stroke="#C76BAB" stroke-width="0.75" stroke-linecap="round" stroke-linejoin="round" d="M28.91,25.646
		c-1.443,1.449-3.553-2.09-1.375-3.096c0.766-0.352,1.711-0.092,2.148,0.631C30.199,24.039,29.537,25.018,28.91,25.646z"/>
	<path fill="#D7A4CB" d="M25.338,30.877c-2.16,0.094-2.072-3.875-0.41-4.18c0.627-0.113,1.59,0.287,2.064,0.709
		C28.211,28.49,26.771,30.814,25.338,30.877"/>
	<path fill="none" stroke="#C76BAB" stroke-width="0.75" stroke-linecap="round" stroke-linejoin="round" d="M25.338,30.877
		c-2.16,0.094-2.072-3.875-0.41-4.18c0.627-0.113,1.59,0.287,2.064,0.709C28.211,28.49,26.771,30.814,25.338,30.877z"/>
	<path fill="#D7A4CB" d="M29.434,27.957c-0.334,0.65-1.557,1.336-2.051,1.098c-0.666-0.324-1.713-0.621-2.096-1.312
		c-0.424-0.758-0.102-2.311,0.625-2.807C27.926,23.566,30.557,25.77,29.434,27.957"/>
	<path fill="none" stroke="#C76BAB" stroke-width="0.75" stroke-linecap="round" stroke-linejoin="round" d="M29.434,27.957
		c-0.334,0.65-1.557,1.336-2.051,1.098c-0.666-0.324-1.713-0.621-2.096-1.312c-0.424-0.758-0.102-2.311,0.625-2.807
		C27.926,23.566,30.557,25.77,29.434,27.957z"/>
	<g>
		<defs>
			<path id="SVGID_19_" d="M17.5,0.493c9.393,0,17.008,7.614,17.008,17.008c0,9.392-7.615,17.007-17.008,17.007
				c-9.392,0-17.008-7.615-17.008-17.007C0.492,8.107,8.108,0.493,17.5,0.493"/>
		</defs>
		<clipPath id="SVGID_20_">
			<use xlink:href="#SVGID_19_"  overflow="visible"/>
		</clipPath>
		<g clip-path="url(#SVGID_20_)">
			<defs>
				<rect id="SVGID_21_" x="0.492" y="0.493" width="33.959" height="33.958"/>
			</defs>
			<clipPath id="SVGID_22_">
				<use xlink:href="#SVGID_21_"  overflow="visible"/>
			</clipPath>
			<path clip-path="url(#SVGID_22_)" fill="#D7A4CB" d="M28.734,30.658c-0.359-0.154-1.051-0.586-1.354-1.604"/>
			
				<path clip-path="url(#SVGID_22_)" fill="none" stroke="#C76BAB" stroke-width="0.75" stroke-linecap="round" stroke-linejoin="round" d="
				M28.734,30.658c-0.359-0.154-1.051-0.586-1.354-1.604"/>
			<path clip-path="url(#SVGID_22_)" fill="#D7A4CB" d="M31.191,28.762c-0.408,0.137-1.646-0.689-1.629-1.121"/>
			
				<path clip-path="url(#SVGID_22_)" fill="none" stroke="#C76BAB" stroke-width="0.75" stroke-linecap="round" stroke-linejoin="round" d="
				M31.191,28.762c-0.408,0.137-1.646-0.689-1.629-1.121"/>
		</g>
	</g>
	<path fill="#D7A4CB" d="M19.617,17.168c-1.166,0.394-1.471-1.253-2.701-2.524c-1.535-1.589-3.902-2.16-3.008-3.188
		c0.636-0.729,0.78-1.333,1.549-1.009c0.768,0.323,1.704,1.819,2.808,2.767c0.867,0.747,2.951,2.095,2.869,2.757"/>
	<path fill="none" stroke="#C76BAB" stroke-width="0.75" stroke-linecap="round" stroke-linejoin="round" d="M19.617,17.168
		c-1.166,0.394-1.471-1.253-2.701-2.524c-1.535-1.589-3.902-2.16-3.008-3.188c0.636-0.729,0.78-1.333,1.549-1.009
		c0.768,0.323,1.704,1.819,2.808,2.767c0.867,0.747,2.951,2.095,2.869,2.757"/>
	<path fill="#D7A4CB" d="M17.187,19.885c-1.033,0.354-1.606-1.164-2.99-2.231c-1.799-1.389-4.283-1.657-3.535-2.797
		c0.531-0.81,0.582-1.431,1.41-1.206c0.828,0.223,2.007,1.597,3.267,2.404c0.994,0.634,3.289,1.299,3.128,2.542"/>
	<path fill="none" stroke="#C76BAB" stroke-width="0.75" stroke-linecap="round" stroke-linejoin="round" d="M17.187,19.885
		c-1.033,0.354-1.606-1.164-2.99-2.231c-1.799-1.389-4.283-1.657-3.535-2.797c0.531-0.81,0.582-1.431,1.41-1.206
		c0.828,0.223,2.007,1.597,3.267,2.404c0.994,0.634,3.289,1.299,3.128,2.542"/>
	<path fill="#D7A4CB" d="M16.064,23.305c-1.045,0.65-1.623-0.863-3.019-1.801c-1.742-1.172-4.103-1.166-3.427-2.365
		c0.48-0.85,0.511-1.465,1.302-1.333c0.791,0.132,1.946,1.354,3.163,2.008c0.959,0.516,3.182,1.326,3.219,1.982"/>
	<path fill="none" stroke="#C76BAB" stroke-width="0.75" stroke-linecap="round" stroke-linejoin="round" d="M16.064,23.305
		c-1.045,0.65-1.623-0.863-3.019-1.801c-1.742-1.172-4.103-1.166-3.427-2.365c0.48-0.85,0.511-1.465,1.302-1.333
		c0.791,0.132,1.946,1.354,3.163,2.008c0.959,0.516,3.182,1.326,3.219,1.982"/>
	<path fill="#D7A4CB" d="M16.444,26.545c-0.871,0.605-1.434-0.668-2.674-1.41c-1.549-0.926-3.576-0.816-3.049-1.877
		c0.373-0.75,0.373-1.279,1.058-1.201c0.685,0.076,1.732,1.072,2.807,1.582c0.846,0.398,2.792,0.992,2.854,1.557"/>
	<path fill="none" stroke="#C76BAB" stroke-width="0.75" stroke-linecap="round" stroke-linejoin="round" d="M16.444,26.545
		c-0.871,0.605-1.434-0.668-2.674-1.41c-1.549-0.926-3.576-0.816-3.049-1.877c0.373-0.75,0.373-1.279,1.058-1.201
		c0.685,0.076,1.732,1.072,2.807,1.582c0.846,0.398,2.792,0.992,2.854,1.557"/>
	<path fill="#D7A4CB" d="M27.926,23.283c-0.209,0.295-1.145,0.908-1.842-0.143c-0.697-1.049-1.516-2.072-2.385-2.578
		c-1.295-0.754-3.061-1.516-3.555-2.023c-0.709-0.723-0.705-1.274-0.301-1.766c0.402-0.49,1-0.891,1.527-0.746
		c1.021,0.281,1.562,1.552,2.074,2.081c0.51,0.531,2.023,1.604,3.203,2.051c0.848,0.324,1.709,0.59,2.049,1.176
		c0.275,0.475,0.367,0.893,0,1.25C28.336,22.938,28.135,22.988,27.926,23.283"/>
	<path fill="none" stroke="#C76BAB" stroke-width="0.75" stroke-linecap="round" stroke-linejoin="round" d="M27.926,23.283
		c-0.209,0.295-1.145,0.908-1.842-0.143c-0.697-1.049-1.516-2.072-2.385-2.578c-1.295-0.754-3.061-1.516-3.555-2.023
		c-0.709-0.723-0.705-1.274-0.301-1.766c0.402-0.49,1-0.891,1.527-0.746c1.021,0.281,1.562,1.552,2.074,2.081
		c0.51,0.531,2.023,1.604,3.203,2.051c0.848,0.324,1.709,0.59,2.049,1.176c0.275,0.475,0.367,0.893,0,1.25
		C28.336,22.938,28.135,22.988,27.926,23.283z"/>
	<path fill="#D7A4CB" d="M24.332,27.873c0.246,0.666-0.266,1.381-0.365,1.645c-0.113,0.293-0.754,1.021-1.52,0.332
		s-1.613-1.461-2.412-1.662c-1.195-0.301-2.406-0.354-2.902-0.648c-0.713-0.42-0.816-0.871-0.586-1.373
		c0.234-0.5,0.64-0.973,1.095-0.982c0.881-0.02,1.563,0.891,2.081,1.199c0.514,0.309,2.27,0.842,3.312,0.922"/>
	<path fill="none" stroke="#C76BAB" stroke-width="0.75" stroke-linecap="round" stroke-linejoin="round" d="M24.332,27.873
		c0.246,0.666-0.266,1.381-0.365,1.645c-0.113,0.293-0.754,1.021-1.52,0.332s-1.613-1.461-2.412-1.662
		c-1.195-0.301-2.406-0.354-2.902-0.648c-0.713-0.42-0.816-0.871-0.586-1.373c0.234-0.5,0.64-0.973,1.095-0.982
		c0.881-0.02,1.563,0.891,2.081,1.199c0.514,0.309,2.27,0.842,3.312,0.922"/>
	<path fill="#D7A4CB" d="M30.752,19.299c1.08,1.115-0.127,1.893-0.445,1.957c-2.664,0.551-1.004-2.266-3.143-3.781
		c-0.705-0.499-1.863-1.435-1.139-2.305c0.613-0.73,2.305-1.526,2.928-0.142C29.641,16.55,29.373,17.878,30.752,19.299"/>
	<path fill="none" stroke="#C76BAB" stroke-width="0.75" stroke-linecap="round" stroke-linejoin="round" d="M30.752,19.299
		c1.08,1.115-0.127,1.893-0.445,1.957c-2.664,0.551-1.004-2.266-3.143-3.781c-0.705-0.499-1.863-1.435-1.139-2.305
		c0.613-0.73,2.305-1.526,2.928-0.142C29.641,16.55,29.373,17.878,30.752,19.299z"/>
	<path fill="#D7A4CB" d="M25.814,25.945c0.008,0.152-0.029,0.287-0.139,0.451c-0.285,0.424-0.467,0.52-0.617,0.854
		c-0.146,0.332-0.932,1.141-1.781,0.293c-0.85-0.846-1.809-1.643-2.727-1.926c-1.369-0.422-3.186-0.744-3.749-1.117
		c-0.8-0.529-0.893-1.062-0.592-1.627c0.299-0.566,0.8-1.092,1.327-1.076c1.025,0.031,1.763,1.127,2.341,1.52
		c0.582,0.389,2.105,1.055,3.311,1.209"/>
	<path fill="none" stroke="#C76BAB" stroke-width="0.75" stroke-linecap="round" stroke-linejoin="round" d="M25.814,25.945
		c0.008,0.152-0.029,0.287-0.139,0.451c-0.285,0.424-0.467,0.52-0.617,0.854c-0.146,0.332-0.932,1.141-1.781,0.293
		c-0.85-0.846-1.809-1.643-2.727-1.926c-1.369-0.422-3.186-0.744-3.749-1.117c-0.8-0.529-0.893-1.062-0.592-1.627
		c0.299-0.566,0.8-1.092,1.327-1.076c1.025,0.031,1.763,1.127,2.341,1.52c0.582,0.389,2.105,1.055,3.311,1.209"/>
	<path fill="#D7A4CB" d="M25.984,25.771c-0.199,0.303-1.121,0.939-1.885-0.104s-1.648-2.061-2.561-2.551
		c-1.357-0.73-3.195-1.465-3.725-1.965c-0.757-0.715-0.781-1.271-0.394-1.775c0.389-0.502,0.976-0.92,1.521-0.787
		c1.055,0.262,1.668,1.535,2.217,2.057c0.547,0.523,2.145,1.574,3.367,2c0.885,0.309,1.773,0.559,2.15,1.143
		c0.303,0.471,0.418,0.893,0.062,1.26C26.387,25.414,26.184,25.469,25.984,25.771"/>
	<path fill="none" stroke="#C76BAB" stroke-width="0.75" stroke-linecap="round" stroke-linejoin="round" d="M25.984,25.771
		c-0.199,0.303-1.121,0.939-1.885-0.104s-1.648-2.061-2.561-2.551c-1.357-0.73-3.195-1.465-3.725-1.965
		c-0.757-0.715-0.781-1.271-0.394-1.775c0.389-0.502,0.976-0.92,1.521-0.787c1.055,0.262,1.668,1.535,2.217,2.057
		c0.547,0.523,2.145,1.574,3.367,2c0.885,0.309,1.773,0.559,2.15,1.143c0.303,0.471,0.418,0.893,0.062,1.26
		C26.387,25.414,26.184,25.469,25.984,25.771z"/>
	<g>
		<defs>
			<path id="SVGID_23_" d="M17.5,0.493c9.393,0,17.008,7.614,17.008,17.008c0,9.392-7.615,17.007-17.008,17.007
				c-9.392,0-17.008-7.615-17.008-17.007C0.492,8.107,8.108,0.493,17.5,0.493"/>
		</defs>
		<clipPath id="SVGID_24_">
			<use xlink:href="#SVGID_23_"  overflow="visible"/>
		</clipPath>
		<g clip-path="url(#SVGID_24_)">
			<defs>
				<rect id="SVGID_25_" x="0.492" y="0.493" width="33.959" height="33.958"/>
			</defs>
			<clipPath id="SVGID_26_">
				<use xlink:href="#SVGID_25_"  overflow="visible"/>
			</clipPath>
			<path clip-path="url(#SVGID_26_)" fill="#D7A4CB" d="M65.318,55.631c-0.684,0.18-2.576,0.502-3.035-1.82
				c-0.283-1.432-3.67-3.27-4.998-4.211c-1.771-1.256-7.721-6.475-9.209-7.975c-1.488-1.498-10.502-8.338-13.754-9.535
				c-1.156-0.426-3.328-1.25-3.344-2.48c-0.014-1.232,1.52-2.143,1.398-3.223c-0.117-1.084-1.238-2.238-0.482-2.367
				s2.508,0.918,3.162,1.717c0.656,0.795,2.35,3.258,3.969,4.256c2.393,1.475,12.125,9.49,17.434,15.141
				c2.078,2.209,5.867,5.49,7.033,5.877c1.17,0.385,2.367-0.207,2.834,1.012"/>
			
				<path clip-path="url(#SVGID_26_)" fill="none" stroke="#C76BAB" stroke-width="0.75" stroke-linecap="round" stroke-linejoin="round" d="
				M65.318,55.631c-0.684,0.18-2.576,0.502-3.035-1.82c-0.283-1.432-3.67-3.27-4.998-4.211c-1.771-1.256-7.721-6.475-9.209-7.975
				c-1.488-1.498-10.502-8.338-13.754-9.535c-1.156-0.426-3.328-1.25-3.344-2.48c-0.014-1.232,1.52-2.143,1.398-3.223
				c-0.117-1.084-1.238-2.238-0.482-2.367s2.508,0.918,3.162,1.717c0.656,0.795,2.35,3.258,3.969,4.256
				c2.393,1.475,12.125,9.49,17.434,15.141c2.078,2.209,5.867,5.49,7.033,5.877c1.17,0.385,2.367-0.207,2.834,1.012"/>
			
				<path clip-path="url(#SVGID_26_)" fill="none" stroke="#231F20" stroke-width="0.75" stroke-linecap="round" stroke-miterlimit="20" d="
				M49.682,43.105c-2.646-1.336-5.293-2.705-6.416-3.451c-2.414-1.602-9.414-6.234-11.105-8.543"/>
		</g>
	</g>
</g>
</svg>
