<?xml version="1.0" encoding="utf-8"?>
<!-- Generator: Adobe Illustrator 15.1.0, SVG Export Plug-In . SVG Version: 6.00 Build 0)  -->
 
<svg version="1.1" id="Layer_1" xmlns="http://www.w3.org/2000/svg" xmlns:xlink="http://www.w3.org/1999/xlink" x="0px" y="0px"
	 width="57.143px" height="35px" viewBox="6.918 0 57.143 35" enable-background="new 6.918 0 57.143 35" xml:space="preserve">
<g>
	<path fill="#80004A" d="M9.759,17.626c0-7.376,5.979-13.354,13.354-13.354c7.377,0,13.355,5.979,13.355,13.354
		c0,7.375-5.979,13.357-13.355,13.357C15.737,30.983,9.759,25.003,9.759,17.626"/>
	<polygon fill="#FFFFFF" points="27.665,10.065 21.229,22.006 17.952,17.954 16.272,19.514 21.579,25.978 29.54,11.286 	"/>
	<path fill="#80004A" d="M34.511,17.626c0-7.376,5.979-13.354,13.354-13.354c7.377,0,13.354,5.979,13.354,13.354
		c0,7.375-5.979,13.357-13.354,13.357C40.49,30.983,34.511,25.003,34.511,17.626"/>
	<polygon fill="#FFFFFF" points="52.418,10.065 45.982,22.006 42.705,17.954 41.025,19.514 46.332,25.978 54.293,11.286 	"/>
</g>
</svg>
