<?xml version="1.0" encoding="utf-8"?>
<!-- Generator: Adobe Illustrator 15.1.0, SVG Export Plug-In . SVG Version: 6.00 Build 0)  -->
 
<svg version="1.1" id="Layer_1" xmlns="http://www.w3.org/2000/svg" xmlns:xlink="http://www.w3.org/1999/xlink" x="0px" y="0px"
	 width="35px" height="35px" viewBox="0 0 35 35"   xml:space="preserve">
<g>
	<g>
		<defs>
			<rect id="SVGID_1_" x="0.521" y="0.521" width="33.959" height="33.959"/>
		</defs>
		<clipPath id="SVGID_2_">
			<use xlink:href="#SVGID_1_"  overflow="visible"/>
		</clipPath>
		<path clip-path="url(#SVGID_2_)" fill="#00AA7E" d="M17.528,0.521c9.395,0,17.009,7.615,17.009,17.008
			s-7.614,17.007-17.009,17.007c-9.393,0-17.008-7.614-17.008-17.007S8.136,0.521,17.528,0.521"/>
	</g>
	<path fill="none" stroke="#34BA99" stroke-width="3.5" d="M30.059,19.105c0.279-0.504-0.049-2.421-0.292-2.504
		c0.108-0.625-0.418-1.562-0.584-1.438c0.051-0.426-0.212-1.255-0.504-1.273c0.108-0.264-0.194-1.209-0.747-1.379
		c-0.189-0.916-1.013-1.805-1.309-1.757c-0.151-0.799-1.349-1.487-1.812-1.312c-0.233-0.558-1.504-1.182-1.815-0.861
		c-0.574-0.579-1.358-0.675-1.887-0.528c-0.156-0.371-1.466-0.727-1.927-0.577c-0.321-0.268-1.481-0.455-2-0.129
		c-0.727-0.272-1.683-0.152-2.125,0.045c-0.595-0.241-1.917-0.033-2.32,0.619c-1.131-0.3-2.589,0.081-2.492,0.697
		C9.924,8.598,9.576,8.732,9.444,9.04c-0.656,0.046-1.422,0.677-1.449,1.126c-0.332-0.09-1.146,0.964-1.107,1.418
		c-0.49,0.262-0.879,1.026-0.721,1.398c-0.257,0.119-0.497,0.689-0.318,1.062c-0.385,0.358-0.546,1.139-0.299,1.492
		c-0.192,0.191-0.328,0.904-0.197,1.319s-0.005,0.406-0.002,0.722c0.003,0.317-0.021,1.117,0.464,1.305
		c-0.148,0.201-0.013,0.801,0.635,0.909c-0.082,0.222,0.262,0.493,0.733,0.522c0.019,0.431,1.371,0.449,1.947,0.262
		c0.577-0.188,0.911-0.461,1.797-0.561c0.886-0.101,0.896,0.102,1.521-0.151c-0.334,0.634-0.376,1.772-0.007,2.55
		c0.578,1.211,1.515,1.025,1.515,1.025c0.495,0.392,1.606,0.434,2.652,0.17c0.642-0.162,1.113-0.471,1.722-0.432
		c0.311,0.02,0.614-0.168,0.856-0.396c0.145,0.712,0.145,2.396,1.125,3.073c0.812,0.56,1.324,1.777,1.479,2.008
		s1.667-0.377,1.885-0.854c-0.076-0.303-0.355-0.861-0.685-1.748c0.341,0.062,0.49,0.023,0.499-0.107
		c0.281,0.102,0.57,0.068,0.636-0.146c0.318,0.055,0.644-0.009,0.602-0.147c0.231,0.082,0.391-0.009,0.419-0.176
		c0.23,0.082,0.729-0.021,0.738-0.173c0.217,0.048,0.462-0.072,0.521-0.22c0.289-0.017,0.522-0.221,0.479-0.342
		c0.188-0.021,0.33-0.15,0.4-0.414c0.17-0.023,0.375-0.315,0.268-0.508c0.202,0.012,0.435-0.16,0.369-0.468
		c0.117,0.042,0.284-0.185,0.199-0.445c0.135-0.008,0.16-0.142,0.105-0.313c0.17-0.039,0.291-0.085,0.259-0.356
		c0.155-0.058,0.317-0.2,0.226-0.357v-0.002c0.376-0.01,0.754-0.152,0.954-0.45C30.055,20.056,30.234,19.16,30.059,19.105z"/>
	<path fill="#BAAFAB" d="M30.059,19.105c0.28-0.503-0.049-2.421-0.292-2.504c0.108-0.625-0.418-1.562-0.584-1.438
		c0.051-0.426-0.212-1.255-0.504-1.273c0.108-0.264-0.194-1.209-0.747-1.379c-0.189-0.916-1.013-1.805-1.309-1.757
		c-0.151-0.799-1.349-1.487-1.812-1.312c-0.235-0.558-1.504-1.182-1.816-0.861c-0.573-0.579-1.357-0.675-1.887-0.528
		c-0.155-0.371-1.465-0.727-1.926-0.577c-0.321-0.268-1.481-0.455-2.001-0.129c-0.727-0.271-1.683-0.152-2.124,0.045
		c-0.595-0.241-1.917-0.033-2.32,0.619c-1.131-0.3-2.589,0.081-2.492,0.697C9.924,8.598,9.576,8.732,9.443,9.04
		c-0.656,0.046-1.421,0.677-1.448,1.126c-0.332-0.09-1.146,0.964-1.107,1.418c-0.491,0.262-0.879,1.027-0.721,1.398
		c-0.257,0.119-0.497,0.689-0.318,1.062c-0.384,0.359-0.547,1.139-0.299,1.492c-0.193,0.191-0.329,0.904-0.198,1.319
		c0.132,0.415-0.004,0.406-0.001,0.722c0.002,0.317-0.021,1.117,0.463,1.305c-0.147,0.201-0.012,0.803,0.636,0.909
		c-0.082,0.222,0.262,0.493,0.733,0.522c0.017,0.431,1.371,0.45,1.947,0.262c0.577-0.188,0.911-0.461,1.797-0.561
		c0.886-0.101,0.896,0.102,1.521-0.151c-0.334,0.634-0.377,1.772-0.007,2.55c0.577,1.211,1.515,1.025,1.515,1.025
		c0.493,0.392,1.606,0.434,2.652,0.17c0.642-0.162,1.114-0.471,1.722-0.432c0.311,0.02,0.614-0.168,0.856-0.396
		c-0.308,0.79,0.145,2.396,1.125,3.073c0.812,0.56,1.324,1.777,1.479,2.008s1.668-0.377,1.885-0.854
		c-0.076-0.303-0.355-0.861-0.684-1.748c0.34,0.062,0.489,0.023,0.498-0.107c0.281,0.102,0.571,0.068,0.636-0.146
		c0.318,0.055,0.644-0.009,0.602-0.147c0.231,0.082,0.39-0.009,0.418-0.176c0.231,0.082,0.729-0.021,0.739-0.173
		c0.217,0.048,0.462-0.072,0.521-0.22c0.289-0.017,0.522-0.221,0.479-0.342c0.188-0.021,0.331-0.15,0.4-0.414
		c0.17-0.023,0.375-0.315,0.268-0.508c0.203,0.012,0.435-0.16,0.369-0.468c0.116,0.042,0.284-0.185,0.199-0.445
		c0.134-0.008,0.16-0.142,0.104-0.313c0.171-0.039,0.292-0.085,0.26-0.356c0.155-0.058,0.317-0.2,0.226-0.357v-0.002
		c0.376-0.009,0.754-0.152,0.954-0.45C30.055,20.056,30.235,19.16,30.059,19.105"/>
	<path fill="none" stroke="#988A86" stroke-width="0.75" stroke-linecap="round" stroke-linejoin="round" d="M28.712,21.087
		c0.091,0.157-0.071,0.301-0.228,0.357c0.033,0.272-0.088,0.318-0.259,0.357c0.055,0.172,0.03,0.305-0.105,0.312
		c0.085,0.261-0.082,0.488-0.198,0.446c0.064,0.307-0.166,0.479-0.369,0.467c0.105,0.193-0.099,0.485-0.27,0.508
		c-0.067,0.266-0.212,0.394-0.398,0.414c0.043,0.121-0.19,0.325-0.48,0.342c-0.059,0.148-0.304,0.269-0.521,0.221
		c-0.01,0.151-0.508,0.255-0.739,0.173c-0.029,0.167-0.186,0.257-0.418,0.175c0.042,0.139-0.283,0.203-0.602,0.148
		c-0.064,0.214-0.354,0.247-0.637,0.145c-0.01,0.169-0.249,0.188-0.832,0.032c-0.582-0.157-1.512-0.771-1.813-1.075
		c-0.512-0.204-1.013-1.105-0.999-1.67"/>
	<path fill="none" stroke="#988A86" stroke-width="0.75" stroke-linecap="round" stroke-linejoin="round" d="M24.401,21.424
		c0.65,0.064,0.879,0.013,1.374-0.315c0.495-0.331,1.237-0.284,1.556-0.307c0.175,0.077,0.504,0.234,0.647,0.108
		c0.478,0.3,1.344,0.235,1.688-0.274c0.389-0.579,0.569-1.476,0.393-1.529c0.28-0.504-0.049-2.421-0.292-2.504
		c0.109-0.625-0.418-1.563-0.584-1.438c0.051-0.425-0.212-1.255-0.504-1.272c0.108-0.265-0.194-1.209-0.747-1.379
		c-0.189-0.916-1.012-1.806-1.308-1.757c-0.152-0.8-1.35-1.487-1.812-1.312c-0.235-0.558-1.504-1.182-1.816-0.862
		c-0.572-0.579-1.357-0.675-1.886-0.527c-0.156-0.371-1.466-0.728-1.927-0.577c-0.321-0.269-1.482-0.455-2-0.129
		c-0.727-0.273-1.682-0.152-2.125,0.045c-0.594-0.241-1.917-0.033-2.32,0.619c-1.131-0.301-2.589,0.081-2.492,0.696
		c-0.32-0.11-0.669,0.024-0.801,0.331c-0.657,0.046-1.421,0.678-1.449,1.126c-0.332-0.09-1.146,0.964-1.107,1.418
		c-0.491,0.263-0.878,1.028-0.721,1.399c-0.257,0.119-0.496,0.688-0.318,1.062c-0.383,0.36-0.547,1.14-0.298,1.492
		c-0.193,0.192-0.33,0.905-0.198,1.32c0.131,0.415-0.005,0.406-0.002,0.721c0.002,0.318-0.021,1.118,0.463,1.307
		c-0.147,0.199-0.012,0.8,0.636,0.908c-0.082,0.222,0.263,0.492,0.733,0.522c0.017,0.43,1.371,0.449,1.948,0.261
		c0.576-0.188,0.91-0.461,1.796-0.56c0.886-0.102,0.896,0.101,1.521-0.152c-0.334,0.634-0.376,1.773-0.007,2.55
		c0.577,1.211,1.516,1.026,1.516,1.026c0.492,0.391,1.605,0.433,2.651,0.17c0.643-0.163,1.114-0.471,1.722-0.432
		c0.472,0.029,0.929-0.415,1.178-0.761c0.555,0.149,1.78-0.313,2.162-0.629C22.162,21.867,24.198,21.772,24.401,21.424z"/>
	<path fill="none" stroke="#988A86" stroke-width="0.75" stroke-linecap="round" stroke-linejoin="round" d="M12.448,19.864
		c0.399-0.595,1.218-1.456,1.551-1.622c0.331-0.163,0.425-0.242,0.587-0.452c0.312-0.402,1.421-1.025,2.046-1.02
		c0.255-0.271,1.117-0.504,1.576-0.542c0.459-0.037,0.955-0.213,1.354-0.556c0.641-0.544,1.25-0.675,2.235-0.517"/>
	<path fill="none" stroke="#988A86" stroke-width="0.75" stroke-linecap="round" stroke-linejoin="round" d="M20.608,15.051
		c0.811,0.461,0.847,2.646-0.225,2.865c-0.846,0.17-1.88,0.466-2.4,0.817c-0.52,0.349-1.326,0.802-2.085,0.835
		c-0.838,0.037-2.452,1.625-1.505,2.34"/>
	<path fill="none" stroke="#988A86" stroke-width="0.75" stroke-linecap="round" stroke-linejoin="round" d="M16.135,21.501
		c0.446,0.436,1.382,0.631,1.934,0.486c0.682-0.181,2.113-0.412,2.682,0.173"/>
	<path fill="none" stroke="#988A86" stroke-width="0.75" stroke-linecap="round" stroke-linejoin="round" d="M18.37,20.387
		c0.716-0.111,1.259-0.442,2.048-0.644c0.997-0.252,1.54-0.202,2.509,0.061c0.133,0.034,2.271,0.181,2.124-0.054
		c0.327,0.519,1.214,0.707,1.528,0.388c0.027,0.272,0.275,0.44,0.751,0.664"/>
	<path fill="none" stroke="#988A86" stroke-width="0.75" stroke-linecap="round" stroke-linejoin="round" d="M24.82,13.631
		c-0.265,0.738-0.605,1.914-1.219,2.664c-0.734,0.9-1.628,1.453-3.218,1.621"/>
	<path fill="none" stroke="#988A86" stroke-width="0.75" stroke-linecap="round" stroke-linejoin="round" d="M26.579,20.139
		c0.359-0.34,0.559-0.547,0.808-1.252"/>
	<path fill="none" stroke="#988A86" stroke-width="0.75" stroke-linecap="round" stroke-linejoin="round" d="M29.183,15.164
		c0.092,2.638-1.324,1.971-1.796,3.723"/>
	<path fill="none" stroke="#988A86" stroke-width="0.75" stroke-linecap="round" stroke-linejoin="round" d="M26.608,10.969
		c-0.232,0.87-0.099,1.053,0.024,1.848c0.18,1.153-0.908,1.682-0.628,2.745c0.051,0.194,0.098,0.465,0.043,0.884
		c-0.047,0.375-0.197,0.822-0.442,1.038c-0.269,0.236-0.526,0.304-0.77,0.14"/>
	<path fill="none" stroke="#988A86" stroke-width="0.75" stroke-linecap="round" stroke-linejoin="round" d="M22.014,13.981
		c-0.133,0.307-0.288,0.975-0.055,1.215"/>
	<path fill="none" stroke="#988A86" stroke-width="0.75" stroke-linecap="round" stroke-linejoin="round" d="M23.024,8.801
		c0.03,0.682-1.164,1.019-1.605,1.464c-0.169,0.17-0.563,0.323-0.91,0.461c-0.347,0.135-0.512,0.597-0.537,0.979
		c-0.024,0.38-0.298,0.771-0.399,0.945c-0.102,0.172-0.178,0.643-0.136,1.051c0.033,0.337,0.163,0.981,0.901,1.096
		c2.32,0.363,1.748-2.856,3.437-3.412"/>
	<path fill="none" stroke="#988A86" stroke-width="0.75" stroke-linecap="round" stroke-linejoin="round" d="M20.927,10.525
		c-0.687-0.54-1.237-0.757-2.028-0.739c-0.791,0.016-2.11,0.879-1.906,2.246c-0.275,0.096-0.425,2.411,0.027,4.494"/>
	<path fill="none" stroke="#988A86" stroke-width="0.75" stroke-linecap="round" stroke-linejoin="round" d="M19.142,15.952
		c0.202-0.348,0.261-0.557,0.29-0.87c0.035-0.37,0.082-0.792-0.019-1.07"/>
	<path fill="none" stroke="#988A86" stroke-width="0.75" stroke-linecap="round" stroke-linejoin="round" d="M17.046,10.163
		c-0.562-0.397-2.121-0.701-2.26,0.397c-0.371,0.156-0.983,0.544-0.474,1.751c-0.181,0.35,0.014,0.943,0.379,1.807
		c0.235,0.558,0.012,0.881,0.064,1.449c0.055,0.567,0.034,0.882,0.646,1.555"/>
	
		<line fill="none" stroke="#988A86" stroke-width="0.75" stroke-linecap="round" stroke-linejoin="round" x1="12.736" y1="8.014" x2="12.896" y2="7.999"/>
	<path fill="none" stroke="#988A86" stroke-width="0.75" stroke-linecap="round" stroke-linejoin="round" d="M12.607,7.886
		c-0.657,0.522-1.324,1.7-0.517,2.456"/>
	<path fill="none" stroke="#988A86" stroke-width="0.75" stroke-linecap="round" stroke-linejoin="round" d="M11.833,10.078
		c-0.714-0.627-2.562,0.957-2.854,1.598c-0.288,0.635-0.179,1.388-0.179,1.388"/>
	<path fill="none" stroke="#988A86" stroke-width="0.75" stroke-linecap="round" stroke-linejoin="round" d="M14.412,10.762
		c-0.266,0.253-1.821,0.418-2.264-0.236"/>
	<path fill="none" stroke="#988A86" stroke-width="0.75" stroke-linecap="round" stroke-linejoin="round" d="M13.773,18.22
		c-0.295-0.716-0.543-1.381-1.23-1.785c-0.602-0.354-1.335-0.392-1.937-0.778c-0.588-0.381-0.933-0.879-1.749-0.437"/>
	<path fill="none" stroke="#988A86" stroke-width="0.75" stroke-linecap="round" stroke-linejoin="round" d="M14.515,13.702
		c-0.198-0.42-1.248-0.577-1.725-0.181c-1.162,0.963-0.535,1.483-0.35,2.698"/>
	<path fill="none" stroke="#988A86" stroke-width="0.75" stroke-linecap="round" stroke-linejoin="round" d="M14.937,22.085
		c0.408,0.14,1.006-0.024,1.107-0.381"/>
	<path fill="none" stroke="#988A86" stroke-width="0.75" stroke-linecap="round" stroke-linejoin="round" d="M10.75,13.745
		c-0.411-0.465-1.697-0.851-2.271-0.59c-0.651,0.296-1.038,0.774-0.982,1.585c0.058,0.859,0.013,0.857-0.104,1.254
		c-0.297,1.017,0.776,2.183,1.772,2.086c0.59-0.057,0.797-0.521,1.5-0.169"/>
	<path fill="none" stroke="#988A86" stroke-width="0.75" stroke-linejoin="round" d="M30.059,19.105
		c0.28-0.503-0.049-2.421-0.292-2.504c0.108-0.625-0.418-1.562-0.584-1.438c0.051-0.426-0.212-1.255-0.504-1.273
		c0.108-0.264-0.194-1.209-0.747-1.379c-0.189-0.916-1.013-1.805-1.309-1.757c-0.151-0.799-1.349-1.487-1.812-1.312
		c-0.235-0.558-1.504-1.182-1.816-0.861c-0.573-0.579-1.357-0.675-1.887-0.528c-0.155-0.371-1.465-0.727-1.926-0.577
		c-0.321-0.268-1.481-0.455-2.001-0.129c-0.727-0.271-1.683-0.152-2.124,0.045c-0.595-0.241-1.917-0.033-2.32,0.619
		c-1.131-0.3-2.589,0.081-2.492,0.697C9.924,8.598,9.576,8.732,9.443,9.04c-0.656,0.046-1.421,0.677-1.448,1.126
		c-0.332-0.09-1.146,0.964-1.107,1.418c-0.491,0.262-0.879,1.027-0.721,1.398c-0.257,0.119-0.497,0.689-0.318,1.062
		c-0.384,0.359-0.547,1.139-0.299,1.492c-0.193,0.191-0.329,0.904-0.198,1.319c0.132,0.415-0.004,0.406-0.001,0.722
		c0.002,0.317-0.021,1.117,0.463,1.305c-0.147,0.201-0.012,0.803,0.636,0.909c-0.082,0.222,0.262,0.493,0.733,0.522
		c0.017,0.431,1.371,0.45,1.947,0.262c0.577-0.188,0.911-0.461,1.797-0.561c0.886-0.101,0.896,0.102,1.521-0.151
		c-0.334,0.634-0.377,1.772-0.007,2.55c0.577,1.211,1.515,1.025,1.515,1.025c0.493,0.392,1.606,0.434,2.652,0.17
		c0.642-0.162,1.114-0.471,1.722-0.432c0.311,0.02,0.614-0.168,0.856-0.396c-0.323,0.775,0.145,2.396,1.125,3.073
		c0.812,0.56,1.324,1.777,1.479,2.008s1.668-0.377,1.885-0.854c-0.076-0.303-0.355-0.861-0.684-1.748
		c0.34,0.062,0.489,0.023,0.498-0.107c0.281,0.102,0.571,0.068,0.636-0.146c0.318,0.055,0.644-0.009,0.602-0.147
		c0.231,0.082,0.39-0.009,0.418-0.176c0.231,0.082,0.729-0.021,0.739-0.173c0.217,0.048,0.462-0.072,0.521-0.22
		c0.289-0.017,0.522-0.221,0.479-0.342c0.188-0.021,0.331-0.15,0.4-0.414c0.17-0.023,0.375-0.315,0.268-0.508
		c0.203,0.012,0.435-0.16,0.369-0.468c0.116,0.042,0.284-0.185,0.199-0.445c0.134-0.008,0.16-0.142,0.104-0.313
		c0.171-0.039,0.292-0.085,0.26-0.356c0.155-0.058,0.317-0.2,0.226-0.357v-0.002c0.376-0.009,0.754-0.152,0.954-0.45
		C30.055,20.056,30.235,19.16,30.059,19.105z"/>
</g>
</svg>
