<?xml version="1.0" encoding="utf-8"?>
<!-- Generator: Adobe Illustrator 15.1.0, SVG Export Plug-In . SVG Version: 6.00 Build 0)  -->
 
<svg version="1.1" id="Layer_1" xmlns="http://www.w3.org/2000/svg" xmlns:xlink="http://www.w3.org/1999/xlink" x="0px" y="0px"
	 width="35px" height="35px" viewBox="0 0 35 35"   xml:space="preserve">
<g>
	<g>
		<defs>
			<rect id="SVGID_1_" x="0.492" y="0.492" width="33.959" height="33.959"/>
		</defs>
		<clipPath id="SVGID_2_">
			<use xlink:href="#SVGID_1_"  overflow="visible"/>
		</clipPath>
		<path clip-path="url(#SVGID_2_)" fill="#FCAF26" d="M17.5,0.492c9.393,0,17.008,7.614,17.008,17.009
			c0,9.392-7.615,17.007-17.008,17.007c-9.393,0-17.008-7.615-17.008-17.007C0.492,8.106,8.107,0.492,17.5,0.492"/>
	</g>
	<path fill="none" stroke="#FFCD7E" stroke-width="3.5" d="M21.74,22.852c-4.767,0-4.767-10.701-9.537-10.701H9.459
		c4.768,0,4.768,10.701,9.537,10.701H21.74z"/>
	<g>
		<defs>
			<path id="SVGID_3_" d="M17.5,0.492c9.393,0,17.008,7.615,17.008,17.009c0,9.392-7.615,17.007-17.008,17.007
				c-9.393,0-17.008-7.615-17.008-17.007C0.492,8.107,8.107,0.492,17.5,0.492"/>
		</defs>
		<clipPath id="SVGID_4_">
			<use xlink:href="#SVGID_3_"  overflow="visible"/>
		</clipPath>
		<g clip-path="url(#SVGID_4_)">
			<defs>
				<rect id="SVGID_5_" x="0.492" y="0.492" width="33.959" height="33.959"/>
			</defs>
			<clipPath id="SVGID_6_">
				<use xlink:href="#SVGID_5_"  overflow="visible"/>
			</clipPath>
			<path clip-path="url(#SVGID_6_)" fill="none" stroke="#FFCD7E" stroke-width="3.5" d="M-1.482,22.852
				c4.769,0,4.769-10.701,9.536-10.701h2.744c-4.767,0-4.767,10.701-9.533,10.701H-1.482z"/>
			<path clip-path="url(#SVGID_6_)" fill="none" stroke="#FFCD7E" stroke-width="3.5" d="M44.963,22.852
				c-4.77,0-4.77-10.701-9.535-10.701h-2.746c4.768,0,4.768,10.701,9.537,10.701H44.963z"/>
			<path clip-path="url(#SVGID_6_)" fill="none" stroke="#FFCD7E" stroke-width="3.5" d="M21.74,22.852
				c4.77,0,4.77-10.701,9.535-10.701h2.744c-4.766,0-4.766,10.701-9.535,10.701H21.74z"/>
		</g>
	</g>
	<path fill="none" stroke="#FFCD7E" stroke-width="3.5" d="M27.508,22.852c-4.77,0-4.77-10.701-9.536-10.701h-2.746
		c4.766,0,4.766,10.701,9.538,10.701H27.508z"/>
	<path fill="none" stroke="#FFCD7E" stroke-width="3.5" d="M4.285,22.852c4.77,0,4.77-10.701,9.535-10.701h2.745
		c-4.766,0-4.766,10.701-9.535,10.701H4.285z"/>
	<g>
		<defs>
			<path id="SVGID_7_" d="M17.5,0.492c9.393,0,17.008,7.615,17.008,17.009c0,9.392-7.615,17.007-17.008,17.007
				c-9.393,0-17.008-7.615-17.008-17.007C0.492,8.107,8.107,0.492,17.5,0.492"/>
		</defs>
		<clipPath id="SVGID_8_">
			<use xlink:href="#SVGID_7_"  overflow="visible"/>
		</clipPath>
		<g clip-path="url(#SVGID_8_)">
			<defs>
				<rect id="SVGID_9_" x="0.492" y="0.492" width="33.959" height="33.959"/>
			</defs>
			<clipPath id="SVGID_10_">
				<use xlink:href="#SVGID_9_"  overflow="visible"/>
			</clipPath>
			<path clip-path="url(#SVGID_10_)" fill="none" stroke="#FFCD7E" stroke-width="3.5" d="M27.508,22.852
				c4.77,0,4.77-10.701,9.533-10.701h2.746c-4.766,0-4.766,10.701-9.537,10.701H27.508z"/>
			<path clip-path="url(#SVGID_10_)" fill="none" stroke="#FFCD7E" stroke-width="3.5" d="M5.623,22.852
				c-4.767,0-4.767-10.701-9.535-10.701h-2.743c4.765,0,4.765,10.701,9.533,10.701H5.623z"/>
		</g>
	</g>
	<path fill="#AF9DCC" d="M21.74,22.852c-4.767,0-4.767-10.701-9.537-10.701H9.459c4.768,0,4.768,10.701,9.537,10.701H21.74"/>
	<path fill="none" stroke="#8A74B5" stroke-width="0.75" stroke-linecap="round" stroke-linejoin="round" d="M21.74,22.852
		c-4.767,0-4.767-10.701-9.537-10.701H9.459c4.768,0,4.768,10.701,9.537,10.701H21.74z"/>
	<g>
		<defs>
			<path id="SVGID_11_" d="M17.5,0.492c9.393,0,17.008,7.615,17.008,17.009c0,9.392-7.615,17.007-17.008,17.007
				c-9.393,0-17.008-7.615-17.008-17.007C0.492,8.107,8.107,0.492,17.5,0.492"/>
		</defs>
		<clipPath id="SVGID_12_">
			<use xlink:href="#SVGID_11_"  overflow="visible"/>
		</clipPath>
		<g clip-path="url(#SVGID_12_)">
			<defs>
				<rect id="SVGID_13_" x="0.492" y="0.492" width="33.959" height="33.959"/>
			</defs>
			<clipPath id="SVGID_14_">
				<use xlink:href="#SVGID_13_"  overflow="visible"/>
			</clipPath>
			<path clip-path="url(#SVGID_14_)" fill="#AF9DCC" d="M-1.482,22.852c4.769,0,4.769-10.701,9.536-10.701h2.744
				c-4.767,0-4.767,10.701-9.533,10.701H-1.482"/>
			
				<path clip-path="url(#SVGID_14_)" fill="none" stroke="#8A74B5" stroke-width="0.75" stroke-linecap="round" stroke-linejoin="round" d="
				M-1.482,22.852c4.769,0,4.769-10.701,9.536-10.701h2.744c-4.767,0-4.767,10.701-9.533,10.701H-1.482z"/>
			<path clip-path="url(#SVGID_14_)" fill="#AF9DCC" d="M44.963,22.852c-4.77,0-4.77-10.701-9.535-10.701h-2.746
				c4.768,0,4.768,10.701,9.537,10.701H44.963"/>
			
				<path clip-path="url(#SVGID_14_)" fill="none" stroke="#8A74B5" stroke-width="0.75" stroke-linecap="round" stroke-linejoin="round" d="
				M44.963,22.852c-4.77,0-4.77-10.701-9.535-10.701h-2.746c4.768,0,4.768,10.701,9.537,10.701H44.963z"/>
			<path clip-path="url(#SVGID_14_)" fill="#AF9DCC" d="M21.74,22.852c4.77,0,4.77-10.701,9.535-10.701h2.744
				c-4.766,0-4.766,10.701-9.535,10.701H21.74"/>
			
				<path clip-path="url(#SVGID_14_)" fill="none" stroke="#8A74B5" stroke-width="0.75" stroke-linecap="round" stroke-linejoin="round" d="
				M21.74,22.852c4.77,0,4.77-10.701,9.535-10.701h2.744c-4.766,0-4.766,10.701-9.535,10.701H21.74z"/>
		</g>
	</g>
	<path fill="#AF9DCC" d="M27.508,22.852c-4.77,0-4.77-10.701-9.536-10.701h-2.746c4.766,0,4.766,10.701,9.538,10.701H27.508"/>
	<path fill="none" stroke="#8A74B5" stroke-width="0.75" stroke-linecap="round" stroke-linejoin="round" d="M27.508,22.852
		c-4.77,0-4.77-10.701-9.536-10.701h-2.746c4.766,0,4.766,10.701,9.538,10.701H27.508z"/>
	<path fill="#AF9DCC" d="M4.284,22.852c4.77,0,4.77-10.701,9.535-10.701h2.745c-4.767,0-4.767,10.701-9.535,10.701H4.284"/>
	<path fill="none" stroke="#8A74B5" stroke-width="0.75" stroke-linecap="round" stroke-linejoin="round" d="M4.284,22.852
		c4.77,0,4.77-10.701,9.535-10.701h2.745c-4.767,0-4.767,10.701-9.535,10.701H4.284z"/>
	<g>
		<defs>
			<path id="SVGID_15_" d="M17.5,0.492c9.393,0,17.008,7.615,17.008,17.009c0,9.392-7.615,17.007-17.008,17.007
				c-9.393,0-17.008-7.615-17.008-17.007C0.492,8.107,8.107,0.492,17.5,0.492"/>
		</defs>
		<clipPath id="SVGID_16_">
			<use xlink:href="#SVGID_15_"  overflow="visible"/>
		</clipPath>
		<g clip-path="url(#SVGID_16_)">
			<defs>
				<rect id="SVGID_17_" x="0.492" y="0.492" width="33.959" height="33.959"/>
			</defs>
			<clipPath id="SVGID_18_">
				<use xlink:href="#SVGID_17_"  overflow="visible"/>
			</clipPath>
			<path clip-path="url(#SVGID_18_)" fill="#AF9DCC" d="M27.508,22.852c4.77,0,4.77-10.701,9.533-10.701h2.746
				c-4.766,0-4.766,10.701-9.537,10.701H27.508"/>
			
				<path clip-path="url(#SVGID_18_)" fill="none" stroke="#8A74B5" stroke-width="0.75" stroke-linecap="round" stroke-linejoin="round" d="
				M27.508,22.852c4.77,0,4.77-10.701,9.533-10.701h2.746c-4.766,0-4.766,10.701-9.537,10.701H27.508z"/>
			<path clip-path="url(#SVGID_18_)" fill="#AF9DCC" d="M5.623,22.852c-4.767,0-4.767-10.701-9.535-10.701h-2.743
				c4.765,0,4.765,10.701,9.533,10.701H5.623"/>
			
				<path clip-path="url(#SVGID_18_)" fill="none" stroke="#8A74B5" stroke-width="0.75" stroke-linecap="round" stroke-linejoin="round" d="
				M5.623,22.852c-4.767,0-4.767-10.701-9.535-10.701h-2.743c4.765,0,4.765,10.701,9.533,10.701H5.623z"/>
		</g>
	</g>
</g>
</svg>
