<?xml version="1.0" encoding="utf-8"?>
<!-- Generator: Adobe Illustrator 15.1.0, SVG Export Plug-In . SVG Version: 6.00 Build 0)  -->
 
<svg version="1.1" id="Layer_1" xmlns="http://www.w3.org/2000/svg" xmlns:xlink="http://www.w3.org/1999/xlink" x="0px" y="0px"
	 width="35px" height="35px" viewBox="0 0 35 35"   xml:space="preserve">
<g>
	<g>
		<defs>
			<rect id="SVGID_1_" x="0.521" y="0.521" width="33.959" height="33.959"/>
		</defs>
		<clipPath id="SVGID_2_">
			<use xlink:href="#SVGID_1_"  overflow="visible"/>
		</clipPath>
		<path clip-path="url(#SVGID_2_)" fill="#645FAA" d="M17.528,0.521c9.394,0,17.009,7.614,17.009,17.008
			c0,9.393-7.615,17.008-17.009,17.008c-9.393,0-17.008-7.615-17.008-17.008C0.521,8.135,8.136,0.521,17.528,0.521"/>
	</g>
	<path fill="none" stroke="#867FBC" stroke-width="3.5" d="M15.105,17.979v4.236c0,0.668,2.423,0.668,2.423,0v-4.236
		C17.528,17.31,15.105,17.31,15.105,17.979z"/>
	<path fill="none" stroke="#867FBC" stroke-width="3.5" d="M15.105,23.224v4.236c0,0.667,2.423,0.667,2.423,0v-4.236
		C17.528,22.556,15.105,22.556,15.105,23.224z"/>
	<path fill="none" stroke="#867FBC" stroke-width="3.5" d="M17.528,17.979v4.236c0,0.668,2.419,0.668,2.419,0v-4.236
		C19.947,17.31,17.528,17.31,17.528,17.979z"/>
	<path fill="none" stroke="#867FBC" stroke-width="3.5" d="M17.528,23.224v4.236c0,0.667,2.419,0.667,2.419,0v-4.236
		C19.947,22.556,17.528,22.556,17.528,23.224z"/>
	<path fill="none" stroke="#867FBC" stroke-width="3.5" d="M7.867,11.741l2.564,3.372c0.406,0.533,2.333-0.936,1.926-1.466
		l-2.563-3.371C9.389,9.745,7.464,11.211,7.867,11.741z"/>
	<path fill="none" stroke="#867FBC" stroke-width="3.5" d="M11.043,15.915l2.564,3.371c0.406,0.532,2.33-0.934,1.93-1.465
		L12.97,14.45C12.564,13.918,10.64,15.384,11.043,15.915z"/>
	<path fill="none" stroke="#867FBC" stroke-width="3.5" d="M9.794,10.275l2.563,3.372c0.407,0.529,2.331-0.936,1.926-1.467
		L11.722,8.81C11.314,8.278,9.39,9.743,9.794,10.275z"/>
	<path fill="none" stroke="#867FBC" stroke-width="3.5" d="M12.97,14.449l2.567,3.371c0.401,0.532,2.328-0.934,1.924-1.465
		l-2.563-3.371C14.49,12.453,12.564,13.917,12.97,14.449z"/>
	<path fill="none" stroke="#867FBC" stroke-width="3.5" d="M27.19,11.74l-2.565,3.372c-0.404,0.533-2.33-0.936-1.928-1.466
		l2.565-3.371C25.67,9.743,27.597,11.21,27.19,11.74z"/>
	<path fill="none" stroke="#867FBC" stroke-width="3.5" d="M24.014,15.914l-2.564,3.37c-0.406,0.533-2.33-0.933-1.928-1.464
		l2.566-3.371C22.494,13.917,24.419,15.383,24.014,15.914z"/>
	<path fill="none" stroke="#867FBC" stroke-width="3.5" d="M25.263,10.274l-2.565,3.372c-0.403,0.529-2.331-0.936-1.925-1.467
		l2.564-3.371C23.741,8.277,25.669,9.742,25.263,10.274z"/>
	<path fill="none" stroke="#867FBC" stroke-width="3.5" d="M22.088,14.448l-2.566,3.371c-0.404,0.532-2.331-0.934-1.924-1.465
		l2.563-3.371C20.566,12.452,22.492,13.916,22.088,14.448z"/>
	<path fill="#B2D235" d="M15.105,23.224v4.236c0,0.667,2.423,0.667,2.423,0v-4.236C17.528,22.556,15.105,22.556,15.105,23.224"/>
	<path fill="none" stroke="#7C9640" stroke-width="0.75" stroke-linecap="round" stroke-linejoin="round" d="M15.105,23.224v4.236
		c0,0.667,2.423,0.667,2.423,0v-4.236C17.528,22.556,15.105,22.556,15.105,23.224z"/>
	<path fill="#B2D235" d="M17.528,23.224v4.236c0,0.667,2.419,0.667,2.419,0v-4.236C19.947,22.556,17.528,22.556,17.528,23.224"/>
	<path fill="none" stroke="#7C9640" stroke-width="0.75" stroke-linecap="round" stroke-linejoin="round" d="M17.528,23.224v4.236
		c0,0.667,2.419,0.667,2.419,0v-4.236C19.947,22.556,17.528,22.556,17.528,23.224z"/>
	<path fill="#B2D235" d="M15.105,17.979v4.236c0,0.668,2.423,0.668,2.423,0v-4.236C17.528,17.31,15.105,17.31,15.105,17.979"/>
	<path fill="none" stroke="#7C9640" stroke-width="0.75" stroke-linecap="round" stroke-linejoin="round" d="M15.105,17.979v4.236
		c0,0.668,2.423,0.668,2.423,0v-4.236C17.528,17.31,15.105,17.31,15.105,17.979z"/>
	<path fill="#B2D235" d="M17.528,17.979v4.236c0,0.668,2.419,0.668,2.419,0v-4.236C19.947,17.31,17.528,17.31,17.528,17.979"/>
	<path fill="none" stroke="#7C9640" stroke-width="0.75" stroke-linecap="round" stroke-linejoin="round" d="M17.528,17.979v4.236
		c0,0.668,2.419,0.668,2.419,0v-4.236C19.947,17.31,17.528,17.31,17.528,17.979z"/>
	<path fill="#B2D235" d="M7.867,11.74l2.564,3.372c0.406,0.533,2.333-0.936,1.926-1.466l-2.563-3.371
		C9.389,9.743,7.464,11.21,7.867,11.74"/>
	<path fill="none" stroke="#7C9640" stroke-width="0.75" stroke-linecap="round" stroke-linejoin="round" d="M7.867,11.74
		l2.564,3.372c0.406,0.533,2.333-0.936,1.926-1.466l-2.563-3.371C9.389,9.743,7.464,11.21,7.867,11.74z"/>
	<path fill="#B2D235" d="M9.794,10.275l2.563,3.372c0.407,0.529,2.331-0.936,1.926-1.467L11.722,8.81
		C11.314,8.278,9.39,9.743,9.794,10.275"/>
	<path fill="none" stroke="#7C9640" stroke-width="0.75" stroke-linecap="round" stroke-linejoin="round" d="M9.794,10.275
		l2.563,3.372c0.407,0.529,2.331-0.936,1.926-1.467L11.722,8.81C11.314,8.278,9.39,9.743,9.794,10.275z"/>
	<path fill="#B2D235" d="M27.189,11.74l-2.565,3.372c-0.404,0.533-2.33-0.936-1.928-1.466l2.565-3.371
		C25.669,9.743,27.596,11.21,27.189,11.74"/>
	<path fill="none" stroke="#7C9640" stroke-width="0.75" stroke-linecap="round" stroke-linejoin="round" d="M27.189,11.74
		l-2.565,3.372c-0.404,0.533-2.33-0.936-1.928-1.466l2.565-3.371C25.669,9.743,27.596,11.21,27.189,11.74z"/>
	<path fill="#B2D235" d="M25.262,10.275l-2.565,3.372c-0.403,0.529-2.331-0.936-1.925-1.467l2.564-3.371
		C23.74,8.278,25.668,9.743,25.262,10.275"/>
	<path fill="none" stroke="#7C9640" stroke-width="0.75" stroke-linecap="round" stroke-linejoin="round" d="M25.262,10.275
		l-2.565,3.372c-0.403,0.529-2.331-0.936-1.925-1.467l2.564-3.371C23.74,8.278,25.668,9.743,25.262,10.275z"/>
	<path fill="#B2D235" d="M11.043,15.915l2.564,3.371c0.406,0.532,2.33-0.934,1.93-1.465L12.97,14.45
		C12.564,13.918,10.64,15.384,11.043,15.915"/>
	<path fill="none" stroke="#7C9640" stroke-width="0.75" stroke-linecap="round" stroke-linejoin="round" d="M11.043,15.915
		l2.564,3.371c0.406,0.532,2.33-0.934,1.93-1.465L12.97,14.45C12.564,13.918,10.64,15.384,11.043,15.915z"/>
	<path fill="#B2D235" d="M12.97,14.449l2.567,3.371c0.401,0.532,2.328-0.934,1.924-1.465l-2.563-3.371
		C14.49,12.453,12.564,13.917,12.97,14.449"/>
	<path fill="none" stroke="#7C9640" stroke-width="0.75" stroke-linecap="round" stroke-linejoin="round" d="M12.97,14.449
		l2.567,3.371c0.401,0.532,2.328-0.934,1.924-1.465l-2.563-3.371C14.49,12.453,12.564,13.917,12.97,14.449z"/>
	<path fill="#B2D235" d="M24.013,15.915l-2.564,3.371c-0.406,0.532-2.331-0.934-1.928-1.465l2.566-3.371
		C22.492,13.918,24.418,15.384,24.013,15.915"/>
	<path fill="none" stroke="#7C9640" stroke-width="0.75" stroke-linecap="round" stroke-linejoin="round" d="M24.013,15.915
		l-2.564,3.371c-0.406,0.532-2.331-0.934-1.928-1.465l2.566-3.371C22.492,13.918,24.418,15.384,24.013,15.915z"/>
	<path fill="#B2D235" d="M22.088,14.449l-2.566,3.371c-0.404,0.532-2.331-0.934-1.924-1.465l2.563-3.371
		C20.566,12.453,22.492,13.917,22.088,14.449"/>
	<path fill="none" stroke="#7C9640" stroke-width="0.75" stroke-linecap="round" stroke-linejoin="round" d="M22.088,14.449
		l-2.566,3.371c-0.404,0.532-2.331-0.934-1.924-1.465l2.563-3.371C20.566,12.453,22.492,13.917,22.088,14.449z"/>
</g>
</svg>
