<?xml version="1.0" encoding="utf-8"?>
<!-- Generator: Adobe Illustrator 15.1.0, SVG Export Plug-In . SVG Version: 6.00 Build 0)  -->
 
<svg version="1.1" id="Layer_1" xmlns="http://www.w3.org/2000/svg" xmlns:xlink="http://www.w3.org/1999/xlink" x="0px" y="0px"
	 width="35px" height="35px" viewBox="0 0 35 35"   xml:space="preserve">
<g>
	<g>
		<defs>
			<rect id="SVGID_1_" x="0.492" y="0.492" width="33.959" height="33.959"/>
		</defs>
		<clipPath id="SVGID_2_">
			<use xlink:href="#SVGID_1_"  overflow="visible"/>
		</clipPath>
		<path clip-path="url(#SVGID_2_)" fill="#00ADAD" d="M17.5,0.492c9.393,0,17.008,7.615,17.008,17.009
			c0,9.393-7.615,17.007-17.008,17.007c-9.393,0-17.008-7.614-17.008-17.007C0.492,8.107,8.107,0.492,17.5,0.492"/>
	</g>
	<path fill="none" stroke="#00BABC" stroke-width="3.5" d="M26.869,15.64c0.568,1.857-0.607,5.76-0.607,5.76
		c-1.438-0.606-2.574-3.145-2.764-3.41c-0.189-0.265,0.037-1.023,0.416-1.402S26.869,15.64,26.869,15.64z"/>
	<g>
		<defs>
			<path id="SVGID_3_" d="M17.5,0.492c9.395,0,17.008,7.615,17.008,17.009c0,9.393-7.613,17.007-17.008,17.007
				c-9.393,0-17.008-7.614-17.008-17.007C0.492,8.107,8.107,0.492,17.5,0.492"/>
		</defs>
		<clipPath id="SVGID_4_">
			<use xlink:href="#SVGID_3_"  overflow="visible"/>
		</clipPath>
		<g clip-path="url(#SVGID_4_)">
			<defs>
				<rect id="SVGID_5_" x="0.492" y="0.492" width="33.959" height="33.959"/>
			</defs>
			<clipPath id="SVGID_6_">
				<use xlink:href="#SVGID_5_"  overflow="visible"/>
			</clipPath>
			<path clip-path="url(#SVGID_6_)" fill="none" stroke="#00BABC" stroke-width="3.5" d="M27.398,16.363
				c0.445,0,0.805-0.643,0.805-1.441c0-0.8-0.359-1.444-0.805-1.444c0,0-2.613-0.072-5.91,0.61
				c-1.043,0.216-2.045,0.492-2.992,0.492c0,0-1.059,0.87-0.606,3.676c0.254,1.561-1.137,3.825-2.31,5.075
				c0,0-0.416-1.288-0.91-1.895c-0.491-0.605-0.114-1.364,0.267-1.818c0.379-0.453-0.114-1.213-1.137-0.266
				c0,0-0.189-0.72-1.024-0.643c0,0-2.348-0.417-4.469,3.939c-0.91,1.326-0.91,2.461-0.947,3.295
				c-0.038,0.834-0.189,2.35-0.305,3.26c-0.112,0.908-0.225,5.454,1.214,7.918c1.438,2.463,2.35,2.801,2.765,2.727
				c0.417-0.076,0.796,0,0.796,0c0.379-0.227,0.19-0.264,0.568-0.15c0.378,0.112,2.5,0.037,2.5,0.037c0.304,0,0.53,0.075,0.53,0.075
				c1.629-0.417,3.714,0.303,3.714,0.303c1.098,0.076,2.008,0.305,2.537,0.645s2.008,0.909,2.766,1.098
				c0.758,0.189,1.059,0.306,1.326,0.494c0.264,0.19,0.645,0.228,0.645,0.228l1.59,0.152c0.719,0.339,1.287,0.263,1.629,0.263
				s0.529,0.115,1.061,0.343c0.531,0.227,1.553,0.832,2.348-0.115s1.213-1.932,1.48-4.052c0.264-2.122,0.188-3.677-0.191-4.585
				c-0.221-0.533-0.488-1.672-0.834-2.614c-1.02-2.802-3.066-6.137-3.863-6.895c-0.795-0.759-2.955-3.183-2.955-3.183
				c-0.416-0.303-0.414-0.86-1.967-0.747c-1.553,0.114-2.199-0.276-2.199-0.276c-0.152-1.175,0.34-2.879,0.34-2.879
				c0.115-0.834,2.35-1.439,3.336-1.516C27.172,16.397,27.398,16.363,27.398,16.363z"/>
		</g>
	</g>
	<path fill="none" stroke="#00BABC" stroke-width="3.5" d="M7.531,18.976c-0.379-0.062-0.576-0.777-0.439-1.595
		c0.139-0.816,0.557-1.427,0.936-1.363c0.683,0,1.378,0.002,1.378,0.002c0.833,1.25-0.152,2.917-0.152,2.917
		C8.533,18.974,7.531,18.976,7.531,18.976z"/>
	<path fill="none" stroke="#00BABC" stroke-width="3.5" d="M8.001,23.293c0.835-0.797,2.122-2.085,2.539-2.805
		c0.417-0.719,1.403-1.4,1.817-1.362c0.417,0.038,0.342,0.15,0.569-0.114c0.227-0.266,0.531-0.113,0.531-0.113
		s-0.486-3.902-0.261-5.683c0-0.296-0.934-0.536-2.089-0.536c-1.154,0-2.088,0.24-2.088,0.536c0.074,1.591,0.147,5.527-0.147,6.326
		C8.23,21.286,8.001,23.293,8.001,23.293z"/>
	<g>
		<defs>
			<path id="SVGID_7_" d="M17.5,0.492c9.395,0,17.008,7.615,17.008,17.009c0,9.393-7.613,17.007-17.008,17.007
				c-9.393,0-17.008-7.614-17.008-17.007C0.492,8.107,8.107,0.492,17.5,0.492"/>
		</defs>
		<clipPath id="SVGID_8_">
			<use xlink:href="#SVGID_7_"  overflow="visible"/>
		</clipPath>
		<g clip-path="url(#SVGID_8_)">
			<defs>
				<rect id="SVGID_9_" x="0.492" y="0.492" width="33.959" height="33.959"/>
			</defs>
			<clipPath id="SVGID_10_">
				<use xlink:href="#SVGID_9_"  overflow="visible"/>
			</clipPath>
			<path clip-path="url(#SVGID_10_)" fill="none" stroke="#00BABC" stroke-width="3.5" d="M15.58,23.709
				c0.473,0.723,1.193,2.166-0.169,4.49c-1.035,1.769-1.828,3.291-1.683,5.452c0.08,1.203,0.48,4.33-2.247,6.174l-0.448,0.023
				c-0.415,0.074-1.326-0.265-2.764-2.728c-1.439-2.464-1.327-7.01-1.214-7.919c0.114-0.909,0.266-2.425,0.304-3.259
				c0.037-0.834,0.037-1.968,0.948-3.295c2.121-4.356,4.468-3.939,4.468-3.939c0.835-0.077,1.025,0.644,1.025,0.644
				c1.021-0.948,1.515-0.188,1.136,0.265c-0.38,0.454-0.757,1.213-0.266,1.819c0.493,0.605,0.909,1.894,0.909,1.894V23.709z"/>
		</g>
	</g>
	<path fill="none" stroke="#00BABC" stroke-width="3.5" d="M23.236,8.231c0.035-0.232-0.357-0.574-0.885-0.655
		c-0.525-0.08-0.98,0.042-1.018,0.276c0,0-0.338,0.589-0.375,0.779C20.92,8.82,20.844,8.936,20.504,8.82c0,0-1.098-0.15-2.236,0.455
		C17.928,9.541,17.436,9.465,17.36,9.2c-0.074-0.265-0.622-0.968-0.622-0.968c-0.11-0.242-0.725-0.201-1.369,0.093
		c-0.648,0.295-1.082,0.729-0.973,0.971c0,0,0.501,1.268,0.653,1.496c0.151,0.227,0.227,0.681-0.342,0.946
		c0,0-1.666,1.742-1.78,4.546c-0.076,0.871,0.417,2.804,0.417,2.804c0.53,2.577,2.235,4.621,2.235,4.621
		c3.674-4.205,2.917-9.129,2.917-9.129c1.555-1.554,3.371-0.531,3.371-0.531c1.631-0.379,4.963-0.53,4.963-0.53
		c-0.492-1.818-1.855-2.992-1.855-2.992c-0.266-0.113-0.266-0.342-0.15-0.606c0.113-0.266,0.258-1.054,0.258-1.054
		c0.066-0.227-0.291-0.533-0.803-0.686C23.77,8.028,23.305,8.005,23.236,8.231z"/>
	<path fill="none" stroke="#00BABC" stroke-width="3.5" d="M22.814,9.541c0.152-0.266,0.379-1.212,0.379-1.212"/>
	<g>
		<defs>
			<path id="SVGID_11_" d="M17.5,0.492c9.395,0,17.008,7.615,17.008,17.009c0,9.393-7.613,17.007-17.008,17.007
				c-9.393,0-17.008-7.614-17.008-17.007C0.492,8.107,8.107,0.492,17.5,0.492"/>
		</defs>
		<clipPath id="SVGID_12_">
			<use xlink:href="#SVGID_11_"  overflow="visible"/>
		</clipPath>
		<g clip-path="url(#SVGID_12_)">
			<defs>
				<rect id="SVGID_13_" x="0.492" y="0.492" width="33.959" height="33.959"/>
			</defs>
			<clipPath id="SVGID_14_">
				<use xlink:href="#SVGID_13_"  overflow="visible"/>
			</clipPath>
			<path clip-path="url(#SVGID_14_)" fill="none" stroke="#00BABC" stroke-width="3.5" d="M28.006,42.729
				c-1.77-0.738-2.41-2.982-2.41-3.784s-0.645-2.727-0.965-4.089c-0.32-1.364-0.721-5.132-0.641-6.495
				c0.08-1.362-1.123-5.853-1.516-7.341c-0.113-0.227-0.152-0.341-0.113-0.605c0.039-0.266,0.113-0.38-0.039-0.721
				c-0.15-0.341-0.037-0.644,0.078-0.871c0.113-0.227,0.377-0.266,0.264-0.683c-0.113-0.415,0.152-0.606,0.266-0.795
				c0.111-0.19,0.111-0.341,0.111-0.341c0.379-0.304,0.797,0,0.873,0.493c0.076,0.491,0.229,1.06,0.492,1.325
				c0.266,0.266,0.303,0.72,0.303,0.72c1.023,0.606,1.744,1.933,1.744,1.933l0.227,0.417c0,0,2.16,2.424,2.955,3.182
				c0.797,0.758,2.844,4.093,3.863,6.896c0.346,0.94,0.611,2.08,0.834,2.613c0.379,0.908,0.453,2.463,0.191,4.585
				c-0.268,2.12-0.686,3.105-1.48,4.052c-0.795,0.947-1.816,0.342-2.348,0.115s-0.719-0.342-1.061-0.342
				S28.725,43.068,28.006,42.729"/>
		</g>
	</g>
	<path fill="none" stroke="#00BABC" stroke-width="3.5" d="M22.322,19.693c-0.15-0.341-0.037-0.644,0.078-0.87
		c0.111-0.228,0.377-0.267,0.264-0.684c-0.113-0.415,0.15-0.605,0.266-0.795c0.111-0.189,0.111-0.34,0.111-0.34
		c0.379-0.304,0.797,0,0.873,0.493c0.076,0.491,0.229,1.059,0.492,1.325C24.465,20.317,22.475,20.036,22.322,19.693z"/>
	<path fill="#DE8189" d="M26.869,15.64c0.568,1.857-0.607,5.76-0.607,5.76c-1.438-0.606-2.574-3.145-2.764-3.41
		c-0.189-0.265,0.037-1.023,0.416-1.402S26.869,15.64,26.869,15.64"/>
	<path fill="none" stroke="#D24D70" stroke-width="0.75" stroke-linecap="round" stroke-linejoin="round" d="M26.869,15.64
		c0.568,1.857-0.607,5.76-0.607,5.76c-1.438-0.606-2.574-3.145-2.764-3.41c-0.189-0.265,0.037-1.023,0.416-1.402
		S26.869,15.64,26.869,15.64z"/>
	<g>
		<defs>
			<path id="SVGID_15_" d="M17.5,0.492c9.395,0,17.008,7.615,17.008,17.009c0,9.393-7.613,17.007-17.008,17.007
				c-9.393,0-17.008-7.614-17.008-17.007C0.492,8.107,8.107,0.492,17.5,0.492"/>
		</defs>
		<clipPath id="SVGID_16_">
			<use xlink:href="#SVGID_15_"  overflow="visible"/>
		</clipPath>
		<g clip-path="url(#SVGID_16_)">
			<defs>
				<rect id="SVGID_17_" x="0.492" y="0.492" width="33.959" height="33.959"/>
			</defs>
			<clipPath id="SVGID_18_">
				<use xlink:href="#SVGID_17_"  overflow="visible"/>
			</clipPath>
			<path clip-path="url(#SVGID_18_)" fill="#DE8189" d="M27.398,16.363c0.445,0,0.805-0.643,0.805-1.441
				c0-0.8-0.359-1.444-0.805-1.444c0,0-2.613-0.072-5.91,0.61c-1.043,0.216-1.678,0.028-2.625,0.028c0,0-1.426,1.334-0.973,4.14
				c0.254,1.561-1.137,3.825-2.31,5.075c0,0-0.416-1.288-0.91-1.895c-0.491-0.605-0.114-1.364,0.267-1.818
				c0.379-0.453-0.114-1.213-1.137-0.266c0,0-0.189-0.72-1.024-0.643c0,0-2.348-0.417-4.469,3.939
				c-0.91,1.326-0.91,2.461-0.947,3.295c-0.038,0.834-0.189,2.35-0.305,3.26c-0.112,0.908-0.225,5.454,1.214,7.918
				c1.438,2.463,2.35,2.802,2.765,2.726c0.417-0.075,0.796,0,0.796,0c0.379-0.225,0.19-0.263,0.568-0.15
				c0.378,0.113,2.5,0.038,2.5,0.038c0.304,0,0.53,0.075,0.53,0.075c1.629-0.417,3.714,0.303,3.714,0.303
				c1.098,0.076,2.008,0.304,2.537,0.645s2.008,0.91,2.766,1.099s1.059,0.305,1.326,0.492c0.264,0.19,0.645,0.229,0.645,0.229
				l1.59,0.15c0.719,0.341,1.287,0.265,1.629,0.265s0.529,0.114,1.061,0.343c0.531,0.227,1.553,0.832,2.348-0.115
				c0.795-0.946,1.213-1.931,1.48-4.052c0.264-2.122,0.188-3.677-0.191-4.585c-0.221-0.533-0.488-1.672-0.834-2.614
				c-1.02-2.802-3.066-6.137-3.863-6.895c-0.795-0.759-2.955-3.183-2.955-3.183c-0.416-0.303-0.414-0.86-1.967-0.747
				c-1.553,0.114-2.199-0.276-2.199-0.276c-0.152-1.175,0.34-2.879,0.34-2.879c0.115-0.834,2.35-1.439,3.336-1.516
				C27.172,16.397,27.398,16.363,27.398,16.363"/>
			
				<path clip-path="url(#SVGID_18_)" fill="none" stroke="#D24D70" stroke-width="0.75" stroke-linecap="round" stroke-linejoin="round" d="
				M27.398,16.363c0.445,0,0.805-0.643,0.805-1.441c0-0.8-0.359-1.444-0.805-1.444c0,0-2.613-0.072-5.91,0.61
				c-1.043,0.216-1.678,0.028-2.625,0.028c0,0-1.426,1.334-0.973,4.14c0.254,1.561-1.137,3.825-2.31,5.075
				c0,0-0.416-1.288-0.91-1.895c-0.491-0.605-0.114-1.364,0.267-1.818c0.379-0.453-0.114-1.213-1.137-0.266
				c0,0-0.189-0.72-1.024-0.643c0,0-2.348-0.417-4.469,3.939c-0.91,1.326-0.91,2.461-0.947,3.295
				c-0.038,0.834-0.189,2.35-0.305,3.26c-0.112,0.908-0.225,5.454,1.214,7.918c1.438,2.463,2.35,2.802,2.765,2.726
				c0.417-0.075,0.796,0,0.796,0c0.379-0.225,0.19-0.263,0.568-0.15c0.378,0.113,2.5,0.038,2.5,0.038c0.304,0,0.53,0.075,0.53,0.075
				c1.629-0.417,3.714,0.303,3.714,0.303c1.098,0.076,2.008,0.304,2.537,0.645s2.008,0.91,2.766,1.099s1.059,0.305,1.326,0.492
				c0.264,0.19,0.645,0.229,0.645,0.229l1.59,0.15c0.719,0.341,1.287,0.265,1.629,0.265s0.529,0.114,1.061,0.343
				c0.531,0.227,1.553,0.832,2.348-0.115c0.795-0.946,1.213-1.931,1.48-4.052c0.264-2.122,0.188-3.677-0.191-4.585
				c-0.221-0.533-0.488-1.672-0.834-2.614c-1.02-2.802-3.066-6.137-3.863-6.895c-0.795-0.759-2.955-3.183-2.955-3.183
				c-0.416-0.303-0.414-0.86-1.967-0.747c-1.553,0.114-2.199-0.276-2.199-0.276c-0.152-1.175,0.34-2.879,0.34-2.879
				c0.115-0.834,2.35-1.439,3.336-1.516C27.172,16.397,27.398,16.363,27.398,16.363z"/>
		</g>
	</g>
	<path fill="#DE8189" d="M7.531,18.976c-0.379-0.062-0.576-0.777-0.439-1.595c0.139-0.816,0.557-1.427,0.936-1.363
		c0.683,0,1.378,0.002,1.378,0.002c0.833,1.25-0.152,2.917-0.152,2.917C8.533,18.974,7.531,18.976,7.531,18.976"/>
	<path fill="none" stroke="#D24D70" stroke-width="0.75" stroke-linecap="round" stroke-linejoin="round" d="M7.531,18.976
		c-0.379-0.062-0.576-0.777-0.439-1.595c0.139-0.816,0.557-1.427,0.936-1.363c0.683,0,1.378,0.002,1.378,0.002
		c0.833,1.25-0.152,2.917-0.152,2.917C8.533,18.974,7.531,18.976,7.531,18.976z"/>
	<path fill="#DE8189" d="M8.001,23.293c0.835-0.797,2.122-2.085,2.539-2.805c0.417-0.719,1.403-1.4,1.817-1.362
		c0.417,0.038,0.342,0.15,0.569-0.114c0.227-0.266,0.531-0.113,0.531-0.113s-0.486-3.902-0.261-5.683
		c0-0.296-0.934-0.536-2.089-0.536c-1.154,0-2.088,0.24-2.088,0.536c0.074,1.591,0.147,5.527-0.147,6.326
		C8.23,21.286,8.001,23.293,8.001,23.293"/>
	<path fill="none" stroke="#D24D70" stroke-width="0.75" stroke-linecap="round" stroke-linejoin="round" d="M8.001,23.293
		c0.835-0.797,2.122-2.085,2.539-2.805c0.417-0.719,1.403-1.4,1.817-1.362c0.417,0.038,0.342,0.15,0.569-0.114
		c0.227-0.266,0.531-0.113,0.531-0.113s-0.486-3.902-0.261-5.683c0-0.296-0.934-0.536-2.089-0.536c-1.154,0-2.088,0.24-2.088,0.536
		c0.074,1.591,0.147,5.527-0.147,6.326C8.23,21.286,8.001,23.293,8.001,23.293z"/>
	<g>
		<defs>
			<path id="SVGID_19_" d="M17.5,0.492c9.395,0,17.008,7.615,17.008,17.009c0,9.393-7.613,17.007-17.008,17.007
				c-9.393,0-17.008-7.614-17.008-17.007C0.492,8.107,8.107,0.492,17.5,0.492"/>
		</defs>
		<clipPath id="SVGID_20_">
			<use xlink:href="#SVGID_19_"  overflow="visible"/>
		</clipPath>
		<g clip-path="url(#SVGID_20_)">
			<defs>
				<rect id="SVGID_21_" x="0.492" y="0.492" width="33.959" height="33.959"/>
			</defs>
			<clipPath id="SVGID_22_">
				<use xlink:href="#SVGID_21_"  overflow="visible"/>
			</clipPath>
			<path clip-path="url(#SVGID_22_)" fill="#DE8189" d="M15.58,23.709c0.473,0.723,1.193,2.166-0.169,4.49
				c-1.035,1.769-1.828,3.291-1.683,5.452c0.08,1.203,0.48,4.33-2.247,6.174l-0.448,0.022c-0.415,0.076-1.326-0.264-2.764-2.727
				c-1.439-2.464-1.327-7.01-1.214-7.919c0.114-0.909,0.266-2.425,0.304-3.259c0.037-0.834,0.037-1.968,0.948-3.295
				c2.121-4.356,4.468-3.939,4.468-3.939c0.835-0.077,1.025,0.644,1.025,0.644c1.021-0.948,1.515-0.188,1.136,0.265
				c-0.38,0.454-0.757,1.213-0.266,1.819c0.493,0.605,0.909,1.894,0.909,1.894V23.709"/>
			
				<path clip-path="url(#SVGID_22_)" fill="none" stroke="#D24D70" stroke-width="0.75" stroke-linecap="round" stroke-linejoin="round" d="
				M15.58,23.709c0.473,0.723,1.193,2.166-0.169,4.49c-1.035,1.769-1.828,3.291-1.683,5.452c0.08,1.203,0.48,4.33-2.247,6.174
				l-0.448,0.022c-0.415,0.076-1.326-0.264-2.764-2.727c-1.439-2.464-1.327-7.01-1.214-7.919c0.114-0.909,0.266-2.425,0.304-3.259
				c0.037-0.834,0.037-1.968,0.948-3.295c2.121-4.356,4.468-3.939,4.468-3.939c0.835-0.077,1.025,0.644,1.025,0.644
				c1.021-0.948,1.515-0.188,1.136,0.265c-0.38,0.454-0.757,1.213-0.266,1.819c0.493,0.605,0.909,1.894,0.909,1.894V23.709z"/>
		</g>
	</g>
	<path fill="#DE8189" d="M23.236,8.231c0.035-0.232-0.357-0.574-0.885-0.655c-0.525-0.08-0.98,0.042-1.018,0.276
		c0,0-0.338,0.589-0.375,0.779C20.92,8.82,20.844,8.936,20.504,8.82c0,0-1.098-0.15-2.236,0.455
		C17.928,9.541,17.436,9.465,17.36,9.2c-0.074-0.265-0.622-0.968-0.622-0.968c-0.11-0.242-0.725-0.201-1.369,0.093
		c-0.648,0.295-1.082,0.729-0.973,0.971c0,0,0.501,1.268,0.653,1.496c0.151,0.227,0.227,0.681-0.342,0.946
		c0,0-1.666,1.742-1.78,4.546c-0.076,0.871,0.417,2.804,0.417,2.804c0.53,2.577,2.235,4.621,2.235,4.621
		c3.674-4.205,2.917-9.129,2.917-9.129c1.555-1.554,3.371-0.531,3.371-0.531c1.631-0.379,4.963-0.53,4.963-0.53
		c-0.492-1.818-1.855-2.992-1.855-2.992c-0.266-0.113-0.266-0.342-0.15-0.606c0.113-0.266,0.258-1.054,0.258-1.054
		c0.066-0.227-0.291-0.533-0.803-0.686C23.77,8.028,23.305,8.005,23.236,8.231"/>
	<path fill="none" stroke="#D24D70" stroke-width="0.75" stroke-linecap="round" stroke-linejoin="round" d="M23.236,8.231
		c0.035-0.232-0.357-0.574-0.885-0.655c-0.525-0.08-0.98,0.042-1.018,0.276c0,0-0.338,0.589-0.375,0.779
		C20.92,8.82,20.844,8.936,20.504,8.82c0,0-1.098-0.15-2.236,0.455C17.928,9.541,17.436,9.465,17.36,9.2
		c-0.074-0.265-0.622-0.968-0.622-0.968c-0.11-0.242-0.725-0.201-1.369,0.093c-0.648,0.295-1.082,0.729-0.973,0.971
		c0,0,0.501,1.268,0.653,1.496c0.151,0.227,0.227,0.681-0.342,0.946c0,0-1.666,1.742-1.78,4.546
		c-0.076,0.871,0.417,2.804,0.417,2.804c0.53,2.577,2.235,4.621,2.235,4.621c3.674-4.205,2.917-9.129,2.917-9.129
		c1.555-1.554,3.371-0.531,3.371-0.531c1.631-0.379,4.963-0.53,4.963-0.53c-0.492-1.818-1.855-2.992-1.855-2.992
		c-0.266-0.113-0.266-0.342-0.15-0.606c0.113-0.266,0.258-1.054,0.258-1.054c0.066-0.227-0.291-0.533-0.803-0.686
		C23.77,8.028,23.305,8.005,23.236,8.231z"/>
	<path fill="none" stroke="#D24D70" stroke-width="0.75" stroke-linecap="round" stroke-linejoin="round" d="M22.814,9.541
		c0.152-0.266,0.379-1.212,0.379-1.212"/>
	<g>
		<defs>
			<path id="SVGID_23_" d="M17.5,0.492c9.395,0,17.008,7.615,17.008,17.009c0,9.393-7.613,17.007-17.008,17.007
				c-9.393,0-17.008-7.614-17.008-17.007C0.492,8.107,8.107,0.492,17.5,0.492"/>
		</defs>
		<clipPath id="SVGID_24_">
			<use xlink:href="#SVGID_23_"  overflow="visible"/>
		</clipPath>
		<g clip-path="url(#SVGID_24_)">
			<defs>
				<rect id="SVGID_25_" x="0.492" y="0.492" width="33.959" height="33.959"/>
			</defs>
			<clipPath id="SVGID_26_">
				<use xlink:href="#SVGID_25_"  overflow="visible"/>
			</clipPath>
			<path clip-path="url(#SVGID_26_)" fill="#DE8189" d="M28.006,42.727c-1.77-0.736-2.41-2.98-2.41-3.783
				c0-0.801-0.645-2.726-0.965-4.089s-0.721-5.131-0.641-6.494c0.08-1.362-1.123-5.853-1.516-7.341
				c-0.113-0.227-0.152-0.341-0.113-0.605c0.039-0.266,0.113-0.38-0.039-0.722c-0.15-0.34-0.037-0.643,0.078-0.87
				c0.113-0.227,0.377-0.266,0.264-0.683c-0.113-0.415,0.152-0.606,0.266-0.795c0.111-0.19,0.111-0.341,0.111-0.341
				c0.379-0.304,0.797,0,0.873,0.493c0.076,0.491,0.229,1.06,0.492,1.325c0.266,0.266,0.303,0.72,0.303,0.72
				c1.023,0.606,1.744,1.933,1.744,1.933l0.227,0.417c0,0,2.16,2.424,2.955,3.182c0.797,0.758,2.844,4.093,3.863,6.896
				c0.346,0.94,0.611,2.08,0.834,2.613c0.379,0.908,0.453,2.463,0.191,4.585c-0.268,2.121-0.686,3.105-1.48,4.052
				c-0.795,0.947-1.816,0.342-2.348,0.115c-0.531-0.229-0.719-0.342-1.061-0.342S28.725,43.068,28.006,42.727"/>
			
				<path clip-path="url(#SVGID_26_)" fill="none" stroke="#D24D70" stroke-width="0.75" stroke-linecap="round" stroke-linejoin="round" d="
				M28.006,42.727c-1.77-0.736-2.41-2.98-2.41-3.783c0-0.801-0.645-2.726-0.965-4.089s-0.721-5.131-0.641-6.494
				c0.08-1.362-1.123-5.853-1.516-7.341c-0.113-0.227-0.152-0.341-0.113-0.605c0.039-0.266,0.113-0.38-0.039-0.722
				c-0.15-0.34-0.037-0.643,0.078-0.87c0.113-0.227,0.377-0.266,0.264-0.683c-0.113-0.415,0.152-0.606,0.266-0.795
				c0.111-0.19,0.111-0.341,0.111-0.341c0.379-0.304,0.797,0,0.873,0.493c0.076,0.491,0.229,1.06,0.492,1.325
				c0.266,0.266,0.303,0.72,0.303,0.72c1.023,0.606,1.744,1.933,1.744,1.933l0.227,0.417c0,0,2.16,2.424,2.955,3.182
				c0.797,0.758,2.844,4.093,3.863,6.896c0.346,0.94,0.611,2.08,0.834,2.613c0.379,0.908,0.453,2.463,0.191,4.585
				c-0.268,2.121-0.686,3.105-1.48,4.052c-0.795,0.947-1.816,0.342-2.348,0.115c-0.531-0.229-0.719-0.342-1.061-0.342
				S28.725,43.068,28.006,42.727"/>
		</g>
	</g>
	<path fill="#DE8189" d="M22.322,19.693c-0.15-0.341-0.037-0.644,0.078-0.87c0.111-0.228,0.377-0.267,0.264-0.684
		c-0.113-0.415,0.15-0.605,0.266-0.795c0.111-0.189,0.111-0.34,0.111-0.34c0.379-0.304,0.797,0,0.873,0.493
		c0.076,0.491,0.229,1.059,0.492,1.325C24.465,20.317,22.475,20.036,22.322,19.693"/>
	<path fill="none" stroke="#D24D70" stroke-width="0.75" stroke-linecap="round" stroke-linejoin="round" d="M22.322,19.693
		c-0.15-0.341-0.037-0.644,0.078-0.87c0.111-0.228,0.377-0.267,0.264-0.684c-0.113-0.415,0.15-0.605,0.266-0.795
		c0.111-0.189,0.111-0.34,0.111-0.34c0.379-0.304,0.797,0,0.873,0.493c0.076,0.491,0.229,1.059,0.492,1.325
		C24.465,20.317,22.475,20.036,22.322,19.693z"/>
</g>
</svg>
