<?xml version="1.0" encoding="utf-8"?>
<!-- Generator: Adobe Illustrator 15.1.0, SVG Export Plug-In . SVG Version: 6.00 Build 0)  -->
 
<svg version="1.1" id="Layer_1" xmlns="http://www.w3.org/2000/svg" xmlns:xlink="http://www.w3.org/1999/xlink" x="0px" y="0px"
	 width="35px" height="35px" viewBox="0 0 35 35"   xml:space="preserve">
<g>
	<path fill="#FCD6C5" d="M33.288,12.621c1.199,4.481-3.393,10.833-7.858,10.238c-7.196-0.96-9.715-5.816-8.473-10.238H33.288"/>
</g>
<circle fill="none" stroke="#F05B69" stroke-miterlimit="3.864" cx="25.184" cy="14.471" r="8.458"/>
<path fill="#F05B69" d="M18.136,18.251c0.136,0.565,0.662,1.756,1.316,2.107c-1.006,0.303-2.303,1.004-2.605,1.735
	c-0.985-0.36-1.691-1.492-1.438-2.303C16.251,19.754,17.959,19.012,18.136,18.251"/>
<g>
	<path fill="#F05B69" d="M16.847,22.094c-0.985-0.36-1.691-1.492-1.438-2.303C12.681,21.333,3.604,26.517,2.8,26.965
		c-0.805,0.448-1.795,1.556-1.063,2.728c0.732,1.17,1.858,1.062,2.794,0.477C5.468,29.584,15.154,23.206,16.847,22.094"/>
</g>
<path fill="#FFFFFF" d="M16.184,22.509c-0.986-0.361-1.693-1.493-1.438-2.304c0.195-0.121,0.507-0.316,0.663-0.414
	c-0.253,0.811,0.454,1.942,1.438,2.303C16.847,22.094,16.301,22.436,16.184,22.509"/>
<path fill="#FFFFFF" d="M28.596,19.67c-2.924,1.826-6.775,0.938-8.603-1.986c-0.292-0.468,0.482-1.007,0.8-0.499
	c1.553,2.485,4.826,3.24,7.312,1.688C28.562,18.586,29.031,19.398,28.596,19.67"/>
<path fill="#FFFFFF" d="M29.229,18.453c-0.152-0.243-0.078-0.565,0.165-0.717c0.244-0.152,0.565-0.079,0.718,0.166
	c0.152,0.243,0.078,0.564-0.166,0.716C29.703,18.771,29.382,18.697,29.229,18.453"/>
<path fill="#FFFFFF" d="M30.044,17.166c-0.129-0.206-0.066-0.479,0.141-0.609s0.48-0.067,0.609,0.141
	c0.13,0.206,0.066,0.479-0.141,0.609S30.174,17.373,30.044,17.166"/>
<path fill="#FFFFFF" d="M30.536,15.947c-0.109-0.177-0.057-0.408,0.12-0.519c0.176-0.11,0.407-0.057,0.519,0.119
	c0.111,0.177,0.056,0.409-0.12,0.518C30.878,16.176,30.647,16.123,30.536,15.947"/>
<path fill="#FFFFFF" d="M31.257,14.811c-0.15,0.094-0.347,0.047-0.44-0.102s-0.047-0.346,0.102-0.44
	c0.149-0.093,0.348-0.048,0.441,0.102C31.452,14.521,31.407,14.718,31.257,14.811"/>
</svg>
