<?xml version="1.0" encoding="utf-8"?>
<!-- Generator: Adobe Illustrator 15.1.0, SVG Export Plug-In . SVG Version: 6.00 Build 0)  -->
 
<svg version="1.1" id="Layer_1" xmlns="http://www.w3.org/2000/svg" xmlns:xlink="http://www.w3.org/1999/xlink" x="0px" y="0px"
	 width="35px" height="35px" viewBox="0 0 35 35"   xml:space="preserve">
<path fill-rule="evenodd" clip-rule="evenodd" fill="#777877" d="M23.495,2h-12.33C7.498,2,4,4.944,4,8.61v12.331
	C4,24.608,7.498,27,11.165,27h0.015c0.547,3,2.053,4.295,5.562,6.445c0,0-1.437-2.445-0.419-6.445h7.173
	C27.161,27,31,24.608,31,20.941V8.61C31,4.944,27.161,2,23.495,2z"/>
<g>
	<g>
		<path fill="#FFFFFF" d="M16.354,17.865v-1.206c0-2.087,2.887-3.008,2.887-5.321c0-1.433-1.373-2.148-2.478-2.148
			c-1.575,0-2.517,0.798-2.66,2.353c0.328-0.307,0.696-0.491,1.146-0.491c0.676,0,1.352,0.514,1.352,1.393
			c0,0.799-0.594,1.452-1.597,1.452c-1.35,0-2.149-1.083-2.149-2.373c0-2.477,2.212-3.848,4.482-3.848c2.19,0,4.81,1.126,4.81,3.705
			c0,3.315-4.482,3.479-4.482,6.058v0.428H16.354z M16.969,18.931c0.858,0,1.514,0.655,1.514,1.514c0,0.861-0.655,1.516-1.514,1.516
			c-0.861,0-1.515-0.654-1.515-1.516C15.454,19.586,16.107,18.931,16.969,18.931z"/>
	</g>
</g>
</svg>
