<?xml version="1.0" encoding="utf-8"?>
<!-- Generator: Adobe Illustrator 15.1.0, SVG Export Plug-In . SVG Version: 6.00 Build 0)  -->
 
<svg version="1.1" id="Layer_1" xmlns="http://www.w3.org/2000/svg" xmlns:xlink="http://www.w3.org/1999/xlink" x="0px" y="0px"
	 width="35px" height="35px" viewBox="0 0 35 35"   xml:space="preserve">
<g>
	<g>
		<defs>
			<rect id="SVGID_1_" x="0.521" y="0.521" width="33.959" height="33.959"/>
		</defs>
		<clipPath id="SVGID_2_">
			<use xlink:href="#SVGID_1_"  overflow="visible"/>
		</clipPath>
		<path clip-path="url(#SVGID_2_)" fill="#A14A9C" d="M17.528,0.521c9.394,0,17.009,7.614,17.009,17.008
			c0,9.393-7.615,17.007-17.009,17.007c-9.393,0-17.008-7.614-17.008-17.007C0.521,8.135,8.136,0.521,17.528,0.521"/>
	</g>
	<path fill="none" stroke="#B577B2" stroke-width="3.5" d="M27.106,11.667c-1.562-0.9-3.562-0.366-4.463,1.196
		c-0.311,0.538-0.438,1.127-0.427,1.706l-2.216,0.846c-0.599-0.7-1.478-1.153-2.473-1.153c-0.626,0-1.204,0.185-1.702,0.489
		l-1.829-1.487c0.124-0.347,0.202-0.711,0.202-1.101c0-1.803-1.463-3.266-3.268-3.266c-1.804,0-3.266,1.463-3.266,3.266
		c0,1.806,1.462,3.269,3.266,3.269c0.621,0,1.195-0.183,1.688-0.482l1.841,1.497c-0.062,0.169-0.111,0.342-0.143,0.524
		c-0.637-0.847-1.669-1.369-2.807-1.301c-1.799,0.104-3.174,1.65-3.067,3.452c0.107,1.804,1.655,3.177,3.457,3.067
		c1.547-0.091,2.771-1.247,3.021-2.712c0.277,0.375,0.64,0.682,1.053,0.908l-0.376,2.335c-0.359,0.063-0.717,0.179-1.052,0.373
		c-1.564,0.902-2.099,2.899-1.197,4.463c0.903,1.562,2.901,2.097,4.463,1.195c1.563-0.902,2.098-2.9,1.196-4.464
		c-0.31-0.534-0.754-0.94-1.259-1.219l0.376-2.335c1.518-0.28,2.67-1.607,2.67-3.206c0-0.028-0.007-0.054-0.008-0.082l2.204-0.842
		c0.238,0.28,0.515,0.53,0.848,0.723c1.562,0.902,3.56,0.365,4.463-1.196C29.205,14.567,28.669,12.57,27.106,11.667z"/>
	<path fill="#00B9B1" d="M14.969,18.733c0.105,1.801-1.269,3.349-3.067,3.456c-1.802,0.108-3.35-1.265-3.457-3.067
		c-0.107-1.802,1.268-3.348,3.067-3.452C13.312,15.56,14.86,16.934,14.969,18.733"/>
	<path fill="none" stroke="#009994" stroke-width="0.75" d="M14.969,18.733c0.105,1.801-1.269,3.349-3.067,3.456
		c-1.802,0.108-3.35-1.265-3.457-3.067c-0.107-1.802,1.268-3.348,3.067-3.452C13.312,15.56,14.86,16.934,14.969,18.733z"/>
	<path fill="#00B9B1" d="M23.841,17.327c-1.563-0.901-2.099-2.899-1.196-4.464c0.899-1.562,2.9-2.097,4.463-1.196
		c1.562,0.903,2.098,2.9,1.196,4.464C27.4,17.692,25.403,18.229,23.841,17.327"/>
	<circle fill="none" stroke="#009994" stroke-width="0.75" cx="25.474" cy="14.497" r="3.268"/>
	<path fill="#00B9B1" d="M22.83,14.338l-7.944,3.028c-0.562,0.215,0.216,2.248,0.777,2.034l7.943-3.028
		c0.561-0.215,0.695-0.778,0.481-1.341C23.872,14.472,23.391,14.123,22.83,14.338"/>
	<path fill="none" stroke="#009994" stroke-width="0.75" d="M22.83,14.338l-7.944,3.028c-0.562,0.215,0.216,2.248,0.777,2.034
		l7.943-3.028c0.561-0.215,0.695-0.778,0.481-1.341C23.872,14.472,23.391,14.123,22.83,14.338z"/>
	<path fill="#00B9B1" d="M17.333,16.456l-4.13,1.001c-0.588,0.144-0.865,0.733-0.727,1.317c0.144,0.587,0.653,0.942,1.235,0.799
		l4.042-0.976"/>
	<path fill="none" stroke="#009994" stroke-width="0.75" d="M17.333,16.456l-4.13,1.001c-0.588,0.144-0.865,0.733-0.727,1.317
		c0.144,0.587,0.653,0.942,1.235,0.799l4.042-0.976"/>
	<path fill="#00B9B1" d="M20.796,17.528c0,1.804-1.462,3.267-3.268,3.267c-1.803,0-3.266-1.463-3.266-3.267
		c0-1.805,1.463-3.268,3.266-3.268C19.334,14.261,20.796,15.724,20.796,17.528"/>
	<circle fill="none" stroke="#009994" stroke-width="0.75" cx="17.529" cy="17.528" r="3.267"/>
	<path fill="#00B9B1" d="M10.587,13.297l4.232,3.442c0.47,0.38,0.994,0.199,1.372-0.269c0.379-0.467,0.469-1.041,0.003-1.42
		l-4.13-3.357"/>
	<path fill="none" stroke="#009994" stroke-width="0.75" d="M10.587,13.297l4.232,3.442c0.47,0.38,0.994,0.199,1.372-0.269
		c0.379-0.467,0.469-1.041,0.003-1.42l-4.13-3.357"/>
	<path fill="#00B9B1" d="M17.335,25.655l0.864-5.387c0.097-0.594-0.325-0.96-0.92-1.053c-0.593-0.096-1.135,0.113-1.229,0.708
		l-0.842,5.257"/>
	<path fill="none" stroke="#009994" stroke-width="0.75" d="M17.335,25.655l0.864-5.387c0.097-0.594-0.325-0.96-0.92-1.053
		c-0.593-0.096-1.135,0.113-1.229,0.708l-0.842,5.257"/>
	<path fill="#00B9B1" d="M14.199,12.163c0,1.806-1.463,3.269-3.268,3.269c-1.804,0-3.266-1.463-3.266-3.269
		c0-1.803,1.462-3.266,3.266-3.266C12.736,8.897,14.199,10.36,14.199,12.163"/>
	<circle fill="none" stroke="#009994" stroke-width="0.75" cx="10.933" cy="12.163" r="3.267"/>
	<path fill="#00B9B1" d="M14.547,23.093c1.562-0.901,3.56-0.367,4.463,1.194c0.901,1.563,0.366,3.562-1.196,4.464
		c-1.562,0.901-3.561,0.366-4.463-1.195C12.448,25.992,12.982,23.995,14.547,23.093"/>
	<circle fill="none" stroke="#009994" stroke-width="0.75" cx="16.18" cy="25.922" r="3.267"/>
</g>
</svg>
