<?xml version="1.0" encoding="utf-8"?>
<!-- Generator: Adobe Illustrator 15.1.0, SVG Export Plug-In . SVG Version: 6.00 Build 0)  -->
 
<svg version="1.1" id="Layer_1" xmlns="http://www.w3.org/2000/svg" xmlns:xlink="http://www.w3.org/1999/xlink" x="0px" y="0px"
	 width="35px" height="35px" viewBox="0 0 35 35"   xml:space="preserve">
<path fill="#00B3B8" d="M29.283,25.441C28.656,22.728,26,21.078,22,20.539c0-0.186,0-0.366,0-0.542
	c5-3.131,4.953-7.325,5.003-10.701c0.008-0.497-0.03-0.981-0.009-1.449c0.057-1.203-0.239-2.129-0.834-2.753
	c-0.953-0.999-2.603-0.97-3.451-0.95L22,4.148V6h0.768c1.576,0,2.399-0.07,2.399,1.813c0,1.973,0.001,7.135-1.591,7.751
	c-1.663,0.643-2.613,0.49-2.65,0.484l-0.047-0.027l-0.047-0.002c-0.041,0.008-0.991,0.115-2.652-0.527
	c-1.592-0.617-1.592-5.704-1.592-7.735C16.588,5.932,17.411,6,18.986,6H19V4.148l-0.32-0.003c-0.849-0.019-2.233-0.047-3.186,0.95
	c-0.595,0.624-0.807,1.55-0.75,2.752c0.023,0.491,0.06,1,0.065,1.522c0.037,3.353,0.1,7.519,5.046,10.628l0.01,1.769l-0.387-0.035
	c-1.025-0.09-2.071-0.136-3.114-0.136c-1.9,0-3.586,0.154-4.839,0.364c-0.599-1.119-1.765-1.89-3.124-1.89
	c-1.965,0-3.557,1.591-3.557,3.556c0,1.967,1.593,3.559,3.558,3.559c1.705,0,3.125-1.2,3.472-2.802
	c2.446-0.386,5.043-0.487,7.524-0.263l0.477,0.045l0.003,2.158c-0.009,1.018,0.378,1.95,1.118,2.696
	c0.968,0.976,2.463,1.559,3.999,1.559c1.421,0,2.716-0.519,3.476-1.421C29.237,28.243,29.549,26.965,29.283,25.441z M21,19.024
	v-0.307c-1,0-1.35-0.855-2.218-1.825c0.733,0.103,1.603,0.162,2.176,0.162c0.17,0,1.286-0.004,2.185-0.105
	c-0.596,0.747-1.408,1.748-2.221,1.769L21,19.024L21,19.024z M27.082,27.735c-0.41,0.585-1.215,0.936-2.154,0.936
	c-1.504,0-3.101-0.89-3.101-2.54l-0.003-2.223c-0.002-0.508-0.002-1.055-0.004-1.605c3.033,0.443,4.83,1.463,5.346,3.042
	C27.521,26.32,27.493,27.147,27.082,27.735z"/>
<path fill="#FFFFFF" d="M6.189,23.625c0,1.223,0.99,2.215,2.212,2.215s2.213-0.992,2.213-2.215c0-1.221-0.991-2.213-2.213-2.213
	S6.189,22.404,6.189,23.625"/>
<path fill="#00B3B8" d="M7.726,23.672c0-0.441,0.357-0.801,0.801-0.801c0.442,0,0.801,0.359,0.801,0.801
	c0,0.443-0.358,0.801-0.801,0.801C8.083,24.473,7.726,24.115,7.726,23.672"/>
</svg>
