<?xml version="1.0" encoding="utf-8"?>
<!-- Generator: Adobe Illustrator 15.1.0, SVG Export Plug-In . SVG Version: 6.00 Build 0)  -->
 
<svg version="1.1" id="Layer_1" xmlns="http://www.w3.org/2000/svg" xmlns:xlink="http://www.w3.org/1999/xlink" x="0px" y="0px"
	 width="35px" height="35px" viewBox="0 0 35 35"   xml:space="preserve">
<g>
	<g>
		<defs>
			<rect id="SVGID_1_" x="0.492" y="0.492" width="33.959" height="33.959"/>
		</defs>
		<clipPath id="SVGID_2_">
			<use xlink:href="#SVGID_1_"  overflow="visible"/>
		</clipPath>
		<path clip-path="url(#SVGID_2_)" fill="#0085CA" d="M17.5,0.492c9.394,0,17.009,7.614,17.009,17.008
			c0,9.393-7.615,17.008-17.009,17.008c-9.394,0-17.008-7.615-17.008-17.008C0.493,8.106,8.107,0.492,17.5,0.492"/>
	</g>
	<g>
		<defs>
			<path id="SVGID_3_" d="M17.5,0.492c9.392,0,17.007,7.614,17.007,17.008c0,9.393-7.615,17.008-17.007,17.008
				c-9.394,0-17.009-7.615-17.009-17.008C0.492,8.106,8.107,0.492,17.5,0.492"/>
		</defs>
		<clipPath id="SVGID_4_">
			<use xlink:href="#SVGID_3_"  overflow="visible"/>
		</clipPath>
		<g clip-path="url(#SVGID_4_)">
			<defs>
				<rect id="SVGID_5_" x="0.492" y="0.492" width="33.959" height="33.959"/>
			</defs>
			<clipPath id="SVGID_6_">
				<use xlink:href="#SVGID_5_"  overflow="visible"/>
			</clipPath>
			<polyline clip-path="url(#SVGID_6_)" fill="none" stroke="#429BD6" stroke-width="3.5" points="26.059,12.894 36.189,22.85 
				34.701,26.344 25.301,14.873 			"/>
			<path clip-path="url(#SVGID_6_)" fill="none" stroke="#429BD6" stroke-width="3.5" d="M31.58,27.416
				c0.857,0.842,0.328,2.771-1.184,4.312c-1.508,1.545-3.43,2.117-4.287,1.279l-4.545-4.449c-0.857-0.84-0.33-2.773,1.182-4.316
				c1.51-1.543,3.43-2.111,4.287-1.273L31.58,27.416z"/>
			<path clip-path="url(#SVGID_6_)" fill="none" stroke="#429BD6" stroke-width="3.5" d="M28.762,26.666
				c-2.047,2.219-6.807,5.055-9.275,2.848c-1.808-1.617-3.426-3.461-5.206-5.08c-2.337-2.125-1.244-2.857-1.111-4.379l7.075-6.083
				c0.828-0.267,4.277-2.797,5.814-1.078c1.127,1.259,3.855,9.774,7.652,13.786l-8.328,8.494"/>
			<polyline clip-path="url(#SVGID_6_)" fill="none" stroke="#429BD6" stroke-width="3.5" points="29.068,19.25 37.35,27.314 
				32.018,32.904 23.598,24.842 			"/>
		</g>
	</g>
	<path fill="none" stroke="#429BD6" stroke-width="3.5" d="M20.602,16.858c0.857,0.84,0.328,2.771-1.184,4.316
		c-1.508,1.543-3.429,2.113-4.287,1.275l-4.547-4.451c-0.856-0.84-0.328-2.771,1.183-4.313c1.511-1.544,3.43-2.114,4.288-1.275
		L20.602,16.858z"/>
	<path fill="none" stroke="#429BD6" stroke-width="3.5" d="M15.017,13.472c0.532,0.518,0.203,1.717-0.734,2.675
		c-0.937,0.959-2.128,1.31-2.66,0.793L7.56,12.961c-0.532-0.52-0.203-1.719,0.733-2.676c0.938-0.956,2.129-1.312,2.661-0.793
		L15.017,13.472z"/>
	<path fill="none" stroke="#429BD6" stroke-width="3.5" d="M11.727,10.333c0.532,0.523,0.204,1.722-0.733,2.68
		c-0.938,0.959-2.128,1.312-2.662,0.789"/>
	<path fill="none" stroke="#429BD6" stroke-width="3.5" d="M29.068,19.25c0.857,0.84,0.328,2.77-1.182,4.312
		c-1.51,1.545-3.43,2.117-4.287,1.279l-4.547-4.451c-0.857-0.838-0.328-2.772,1.182-4.313c1.512-1.546,3.43-2.113,4.287-1.276
		L29.068,19.25z"/>
	<path fill="none" stroke="#429BD6" stroke-width="3.5" d="M23.484,15.862c0.531,0.521,0.203,1.72-0.734,2.677
		c-0.938,0.959-2.129,1.311-2.66,0.791l-4.062-3.976c-0.533-0.521-0.204-1.719,0.733-2.678c0.938-0.957,2.127-1.31,2.661-0.791
		L23.484,15.862z"/>
	<path fill="none" stroke="#429BD6" stroke-width="3.5" d="M19.422,11.885c0.531,0.521,0.203,1.721-0.732,2.678
		c-0.938,0.959-2.128,1.312-2.662,0.791"/>
	<g>
		<defs>
			<path id="SVGID_7_" d="M17.5,0.492c9.392,0,17.007,7.614,17.007,17.008c0,9.393-7.615,17.008-17.007,17.008
				c-9.394,0-17.009-7.615-17.009-17.008C0.492,8.106,8.107,0.492,17.5,0.492"/>
		</defs>
		<clipPath id="SVGID_8_">
			<use xlink:href="#SVGID_7_"  overflow="visible"/>
		</clipPath>
		<g clip-path="url(#SVGID_8_)">
			<defs>
				<rect id="SVGID_9_" x="0.492" y="0.492" width="33.959" height="33.959"/>
			</defs>
			<clipPath id="SVGID_10_">
				<use xlink:href="#SVGID_9_"  overflow="visible"/>
			</clipPath>
			<polyline clip-path="url(#SVGID_10_)" fill="#FDB913" points="26.059,12.894 36.189,22.85 34.701,26.344 25.301,14.873 			"/>
			
				<polyline clip-path="url(#SVGID_10_)" fill="none" stroke="#CD8A2D" stroke-width="0.75" stroke-linecap="round" stroke-linejoin="round" points="
				26.059,12.894 36.189,22.85 34.701,26.344 25.301,14.873 			"/>
			<path clip-path="url(#SVGID_10_)" fill="#FDB913" d="M31.58,27.418c0.857,0.84,0.328,2.771-1.184,4.312
				c-1.506,1.545-3.428,2.115-4.285,1.277l-4.547-4.449c-0.857-0.84-0.328-2.771,1.182-4.314c1.512-1.545,3.432-2.111,4.287-1.275
				L31.58,27.418"/>
			
				<path clip-path="url(#SVGID_10_)" fill="none" stroke="#CD8A2D" stroke-width="0.75" stroke-linecap="round" stroke-linejoin="round" d="
				M31.58,27.418c0.857,0.84,0.328,2.771-1.184,4.312c-1.506,1.545-3.428,2.115-4.285,1.277l-4.547-4.449
				c-0.857-0.84-0.328-2.771,1.182-4.314c1.512-1.545,3.432-2.111,4.287-1.275L31.58,27.418z"/>
			<path clip-path="url(#SVGID_10_)" fill="#FDB913" d="M28.762,26.668c-2.047,2.217-6.807,5.053-9.275,2.846
				c-1.808-1.615-3.426-3.461-5.206-5.08c-2.337-2.125-1.244-2.855-1.111-4.379l7.075-6.082c0.828-0.267,4.277-2.797,5.814-1.078
				c1.127,1.259,3.855,9.775,7.652,13.785l-8.328,8.494"/>
			
				<path clip-path="url(#SVGID_10_)" fill="none" stroke="#CD8A2D" stroke-width="0.75" stroke-linecap="round" stroke-linejoin="round" d="
				M28.762,26.668c-2.047,2.217-6.807,5.053-9.275,2.846c-1.808-1.615-3.426-3.461-5.206-5.08c-2.337-2.125-1.244-2.855-1.111-4.379
				l7.075-6.082c0.828-0.267,4.277-2.797,5.814-1.078c1.127,1.259,3.855,9.775,7.652,13.785l-8.328,8.494"/>
			<polyline clip-path="url(#SVGID_10_)" fill="#FDB913" points="29.068,19.25 37.35,27.316 32.018,32.906 23.598,24.842 			"/>
			
				<polyline clip-path="url(#SVGID_10_)" fill="none" stroke="#CD8A2D" stroke-width="0.75" stroke-linecap="round" stroke-linejoin="round" points="
				29.068,19.25 37.35,27.316 32.018,32.906 23.598,24.842 			"/>
		</g>
	</g>
	<path fill="#FDB913" d="M20.602,16.858c0.857,0.84,0.328,2.771-1.184,4.316c-1.508,1.543-3.429,2.113-4.287,1.275l-4.547-4.451
		c-0.856-0.84-0.328-2.771,1.183-4.313c1.511-1.544,3.43-2.114,4.288-1.275L20.602,16.858"/>
	<path fill="none" stroke="#CD8A2D" stroke-width="0.75" stroke-linecap="round" stroke-linejoin="round" d="M20.602,16.858
		c0.857,0.84,0.328,2.771-1.184,4.316c-1.508,1.543-3.429,2.113-4.287,1.275l-4.547-4.451c-0.856-0.84-0.328-2.771,1.183-4.313
		c1.511-1.544,3.43-2.114,4.288-1.275L20.602,16.858z"/>
	<path fill="#FDB913" d="M15.017,13.473c0.532,0.518,0.203,1.717-0.734,2.675c-0.937,0.959-2.128,1.31-2.66,0.793L7.56,12.962
		c-0.532-0.52-0.203-1.719,0.733-2.676c0.938-0.956,2.129-1.312,2.661-0.793L15.017,13.473"/>
	<path fill="none" stroke="#CD8A2D" stroke-width="0.75" stroke-linecap="round" stroke-linejoin="round" d="M15.017,13.473
		c0.532,0.518,0.203,1.717-0.734,2.675c-0.937,0.959-2.128,1.31-2.66,0.793L7.56,12.962c-0.532-0.52-0.203-1.719,0.733-2.676
		c0.938-0.956,2.129-1.312,2.661-0.793L15.017,13.473z"/>
	<path fill="none" stroke="#CD8A2D" stroke-width="0.75" stroke-linecap="round" stroke-linejoin="round" d="M10.955,9.494
		c0.532,0.523,0.204,1.722-0.732,2.68c-0.938,0.959-2.128,1.312-2.662,0.789"/>
	<path fill="#FDB913" d="M29.068,19.25c0.855,0.84,0.328,2.771-1.184,4.314c-1.508,1.545-3.43,2.115-4.287,1.277l-4.547-4.451
		c-0.857-0.838-0.328-2.771,1.182-4.312c1.512-1.546,3.432-2.113,4.289-1.276L29.068,19.25"/>
	<path fill="none" stroke="#CD8A2D" stroke-width="0.75" stroke-linecap="round" stroke-linejoin="round" d="M29.068,19.25
		c0.855,0.84,0.328,2.771-1.184,4.314c-1.508,1.545-3.43,2.115-4.287,1.277l-4.547-4.451c-0.857-0.838-0.328-2.771,1.182-4.312
		c1.512-1.546,3.432-2.113,4.289-1.276L29.068,19.25z"/>
	<path fill="#FDB913" d="M23.482,15.863c0.531,0.521,0.203,1.72-0.734,2.676c-0.938,0.961-2.127,1.312-2.66,0.793l-4.061-3.977
		c-0.533-0.521-0.204-1.719,0.733-2.678c0.938-0.957,2.128-1.31,2.662-0.791L23.482,15.863"/>
	<path fill="none" stroke="#CD8A2D" stroke-width="0.75" stroke-linecap="round" stroke-linejoin="round" d="M23.482,15.863
		c0.531,0.521,0.203,1.72-0.734,2.676c-0.938,0.961-2.127,1.312-2.66,0.793l-4.061-3.977c-0.533-0.521-0.204-1.719,0.733-2.678
		c0.938-0.957,2.128-1.31,2.662-0.791L23.482,15.863z"/>
	<path fill="none" stroke="#CD8A2D" stroke-width="0.75" stroke-linecap="round" stroke-linejoin="round" d="M19.422,11.886
		c0.531,0.521,0.203,1.721-0.732,2.678c-0.939,0.959-2.129,1.312-2.663,0.791"/>
</g>
</svg>
