<?xml version="1.0" encoding="utf-8"?>
<!-- Generator: Adobe Illustrator 15.1.0, SVG Export Plug-In . SVG Version: 6.00 Build 0)  -->
 
<svg version="1.1" id="Layer_1" xmlns="http://www.w3.org/2000/svg" xmlns:xlink="http://www.w3.org/1999/xlink" x="0px" y="0px"
	 width="35px" height="35px" viewBox="0 0 35 35"   xml:space="preserve">
<path fill="#C6D9F0" d="M26.327,13.943l-0.013,13.633c0,0.418-0.372,0.757-0.832,0.757H9.477c-0.459,0-0.832-0.339-0.832-0.757
	v-13.68L26.327,13.943"/>
<path fill="none" stroke="#008DCE" stroke-width="0.616" d="M25.174,28.625c0.782,0,1.416-0.557,1.416-1.247V10.55
	c0-0.688-0.668-1.108-1.377-1.35l-2.516-0.589c-0.551-0.138-0.905-0.45-0.905-0.762h-6.92c0,0.312-0.354,0.624-0.905,0.762
	L11.451,9.2c-0.708,0.242-1.377,0.662-1.377,1.35v16.828c0,0.69,0.634,1.247,1.416,1.247H25.174z"/>
<rect x="13.977" y="5.722" fill="none" stroke="#008DCE" stroke-width="0.654" width="8.711" height="1.731"/>
<path fill="#008DCE" d="M10.501,29.045c0.354,0.283,4.146-0.121,15.063-0.373L25.4,28.816l-0.681,0.436l-0.549,0.484
	c-0.257,0.226-0.609,0.364-1.001,0.364H9.485c-0.781,0-1.415-0.557-1.415-1.247V12.026c0-0.379,0.202-0.676,0.502-0.907l1.929-1.377
	V29.045"/>
<g>
	<path fill="none" stroke="#008DCE" stroke-width="0.616" stroke-miterlimit="3.864" d="M10.501,29.045
		c0.354,0.283,4.146-0.121,15.063-0.373L25.4,28.816l-0.681,0.436l-0.549,0.484c-0.257,0.226-0.609,0.364-1.001,0.364H9.485
		c-0.781,0-1.415-0.557-1.415-1.247V12.026c0-0.379,0.202-0.676,0.502-0.907l1.929-1.377V29.045z"/>
</g>
<path fill="#008DCE" d="M13.818,15.184c0-0.932,0.756-1.687,1.688-1.687s1.687,0.755,1.687,1.687s-0.755,1.688-1.687,1.688
	S13.818,16.115,13.818,15.184"/>
<path fill="#008DCE" d="M21.418,16.629c0-0.932,0.756-1.687,1.688-1.687c0.931,0,1.687,0.755,1.687,1.687
	c0,0.933-0.756,1.688-1.687,1.688C22.174,18.316,21.418,17.562,21.418,16.629"/>
<path fill="#008DCE" d="M12.01,18.979c0-0.932,0.756-1.688,1.686-1.688c0.932,0,1.688,0.756,1.688,1.688s-0.756,1.687-1.688,1.687
	C12.766,20.665,12.01,19.91,12.01,18.979"/>
<path fill="#008DCE" d="M17.131,18.715c0-0.931,0.756-1.686,1.687-1.686c0.933,0,1.687,0.755,1.687,1.686
	c0,0.932-0.754,1.688-1.687,1.688C17.887,20.402,17.131,19.646,17.131,18.715"/>
<path fill="#008DCE" d="M20.525,21.424c0-0.932,0.754-1.688,1.686-1.688s1.688,0.756,1.688,1.688s-0.756,1.687-1.688,1.687
	S20.525,22.355,20.525,21.424"/>
<path fill="#008DCE" d="M11.919,25.521c0-0.931,0.755-1.686,1.687-1.686c0.933,0,1.687,0.755,1.687,1.686
	c0,0.932-0.754,1.688-1.687,1.688C12.674,27.209,11.919,26.453,11.919,25.521"/>
<path fill="#008DCE" d="M16.889,25.646c0-0.933,0.756-1.688,1.688-1.688s1.686,0.755,1.686,1.688c0,0.931-0.754,1.687-1.686,1.687
	S16.889,26.576,16.889,25.646"/>
<path fill="#008DCE" d="M21.008,25.459c0-0.934,0.756-1.687,1.688-1.687s1.688,0.753,1.688,1.687c0,0.931-0.756,1.688-1.688,1.688
	S21.008,26.39,21.008,25.459"/>
<path fill="#008DCE" d="M14.459,22.247c0-0.933,0.756-1.687,1.688-1.687c0.933,0,1.687,0.754,1.687,1.687
	c0,0.931-0.754,1.687-1.687,1.687C15.215,23.934,14.459,23.178,14.459,22.247"/>
<path fill="#008DCE" d="M17.721,13.415c0-0.931,0.756-1.686,1.688-1.686s1.686,0.755,1.686,1.686c0,0.933-0.754,1.688-1.686,1.688
	S17.721,14.348,17.721,13.415"/>
</svg>
